<?xml version="1.0" encoding="utf-8"?><svg xmlns="http://www.w3.org/2000/svg" xmlns:xlink="http://www.w3.org/1999/xlink"><symbol fill="none" viewBox="0 0 9 12" id="icon-angle-left" xmlns="http://www.w3.org/2000/svg"><path d="M7.917 1L2.084 6l5.833 5" stroke="currentColor" stroke-width="2"/></symbol><symbol fill="none" viewBox="0 0 9 12" id="icon-angle-right" xmlns="http://www.w3.org/2000/svg"><path d="M1.583 1l5.833 5-5.833 5" stroke="currentColor" stroke-width="2"/></symbol><symbol viewBox="0 0 7 6" id="icon-angledown" xmlns="http://www.w3.org/2000/svg"><path d="M3.5 6L.036.75h6.928L3.5 6z"/></symbol><symbol viewBox="0 0 28 25" id="icon-bag" xmlns="http://www.w3.org/2000/svg"><path fill-rule="evenodd" clip-rule="evenodd" d="M26.11 5.713a2.783 2.783 0 00-1.957-.812h-4.615V3.055c0-.738-.296-1.44-.813-1.957a2.783 2.783 0 00-1.957-.812h-6.452c-.738 0-1.45.295-1.966.821a2.756 2.756 0 00-.803 1.966v1.828H3.845c-.738 0-1.44.296-1.957.812a2.766 2.766 0 00-.812 1.957v13.847c0 .738.296 1.44.812 1.957a2.783 2.783 0 001.957.812h20.308c.739 0 1.44-.296 1.957-.813a2.783 2.783 0 00.812-1.956V7.67c0-.738-.295-1.44-.812-1.957zM9.66 2.4a.914.914 0 01.656-.268h6.452a.914.914 0 01.923.923v1.846H9.403V3.064c0-.249.093-.48.259-.655v-.01zm15.416 7.707v11.41c0 .249-.101.48-.268.655a.914.914 0 01-.655.268H3.845a.914.914 0 01-.923-.924V7.67a.914.914 0 01.923-.923h20.308a.914.914 0 01.923.923v2.437z" stroke="#32B1E7" stroke-width=".424"/></symbol><symbol id="icon-cancel" viewBox="0 0 18.8 18.8" xml:space="preserve" xmlns="http://www.w3.org/2000/svg"><style/><g id="eGroup_51722" transform="translate(-49.869 -44.652)"><path transform="rotate(-45.001 59.32 54.073)" class="est0" d="M47 53.1h24.6v2H47z" id="ePath_82"/><path transform="rotate(-45.001 59.32 54.073)" class="est0" d="M58.3 41.8h2v24.6h-2z" id="ePath_37072"/></g></symbol><symbol fill="none" viewBox="0 0 51 51" id="icon-close" xmlns="http://www.w3.org/2000/svg"><path d="M38.376 12.75l-25 25.5m0-25.5l25 25.5" stroke="currentColor" stroke-width="2.5" stroke-linecap="round" stroke-linejoin="round"/></symbol><symbol fill="none" viewBox="0 0 12 9" id="icon-down" xmlns="http://www.w3.org/2000/svg"><path d="M1 1.083l5 5.834 5-5.834" stroke="currentColor" stroke-width="2"/></symbol><symbol viewBox="0 0 12.297 24.595" id="icon-facebook" xmlns="http://www.w3.org/2000/svg"><path data-name="Path 37747" d="M12.3 8.454H7.688V5.38a1.538 1.538 0 011.537-1.537h1.537V0H7.688a4.611 4.611 0 00-4.612 4.612v3.842H0V12.3h3.074v12.3h4.612V12.3h3.074z"/></symbol><symbol viewBox="0 0 27 27" id="icon-gamification" xmlns="http://www.w3.org/2000/svg"><g opacity=".3" clip-path="url(#iclip0_1252_9004)" stroke="#000" stroke-width="2.129" stroke-miterlimit="10" stroke-linecap="round" stroke-linejoin="round"><path fill-rule="evenodd" clip-rule="evenodd" d="M21.4 25.8H5.2v-.3c0-3.2 2.6-5.8 5.8-5.8h4.6c3.2 0 5.8 2.6 5.8 5.8v.3zM13.3 16C9.8 16 7 12.3 7 8.8V1.1h12.7v7.7c0 3.5-2.9 7.2-6.4 7.2zM7 7.3c-3.3 0-5.9-2.6-5.9-5.9v-.3H7v6.2zM19.7 7.3c3.3 0 5.9-2.6 5.9-5.9v-.3h-5.9v6.2z"/><path d="M13.3 16v3.7"/></g><defs><clipPath id="iclip0_1252_9004"><path d="M0 0h26.6v26.8H0z"/></clipPath></defs></symbol><symbol viewBox="0 0 100 100" id="icon-instagram" xmlns="http://www.w3.org/2000/svg"><g data-name="Group 1707"><path data-name="Path 1334" d="M99.71 29.39a36.79 36.79 0 00-2.33-12.14 24.43 24.43 0 00-5.76-8.85 24.45 24.45 0 00-8.86-5.77A36.52 36.52 0 0070.62.31C65.29.06 63.62 0 50.01 0S34.72.06 29.39.3a36.79 36.79 0 00-12.14 2.33A24.33 24.33 0 008.4 8.4a24.24 24.24 0 00-5.77 8.85A36.52 36.52 0 00.31 29.39c-.25 5.33-.31 7-.31 20.62s.06 15.28.31 20.61a36.78 36.78 0 002.32 12.14 24.48 24.48 0 005.78 8.85 24.37 24.37 0 008.86 5.77 36.52 36.52 0 0012.14 2.32c5.33.25 7 .3 20.61.3s15.28 0 20.62-.3a36.47 36.47 0 0012.13-2.32 25.56 25.56 0 0014.61-14.62 36.78 36.78 0 002.32-12.14c.25-5.33.3-7 .3-20.61s-.05-15.29-.29-20.62zm-9 40.82a27.49 27.49 0 01-1.73 9.28 16.55 16.55 0 01-9.49 9.49 27.49 27.49 0 01-9.28 1.73c-5.27.24-6.85.29-20.2.29s-14.94 0-20.21-.29a27.74 27.74 0 01-9.28-1.73 15.47 15.47 0 01-5.75-3.74 15.54 15.54 0 01-3.75-5.75 27.73 27.73 0 01-1.72-9.28c-.24-5.27-.29-6.85-.29-20.2s.05-14.94.29-20.21a27.73 27.73 0 011.72-9.28 15.59 15.59 0 013.74-5.76 15.57 15.57 0 015.76-3.73 27.84 27.84 0 019.29-1.73c5.27-.23 6.85-.29 20.2-.29s14.93.05 20.21.29a27.74 27.74 0 019.28 1.73 15.47 15.47 0 015.75 3.74 15.45 15.45 0 013.73 5.75 27.59 27.59 0 011.73 9.29c.23 5.27.29 6.85.29 20.2s-.05 14.92-.29 20.2z"/><path data-name="Path 1335" d="M50.01 27.01a23 23 0 1023 23 23 23 0 00-23-23zm0 37.92a14.93 14.93 0 1114.92-14.92 14.92 14.92 0 01-14.92 14.92z"/><path data-name="Path 1336" d="M82.96 23.72a6.67 6.67 0 01-6.67 6.66 6.67 6.67 0 01-6.66-6.66 6.66 6.66 0 016.66-6.66 6.67 6.67 0 016.67 6.66z"/></g></symbol><symbol viewBox="0 0 18.715 15.224" id="icon-left" xmlns="http://www.w3.org/2000/svg"><g data-name="Group 46850"><path data-name="Path 36938" d="M1.268 6.612h16.447a1 1 0 011 1 1 1 0 01-1 1H1.268a1 1 0 01-1-1 1 1 0 011-1z"/><path data-name="Path 36939" d="M7.612 0a1 1 0 01.707.293 1 1 0 010 1.414l-5.9 5.9 5.9 5.9a1 1 0 010 1.414 1 1 0 01-1.414 0L.293 8.324a1 1 0 010-1.414L6.905.293A1 1 0 017.612 0z"/></g></symbol><symbol viewBox="0 0 18 16.58" id="icon-linkedin" xmlns="http://www.w3.org/2000/svg"><g data-name="Group 51575"><g data-name="Group 51574"><path data-name="Path 39667" d="M.137 16.58h3.707V4.891H.137z"/><path data-name="Path 39668" d="M6.462 4.548h3.954l-.247 1.572h.042a3.91 3.91 0 013.078-1.572c1.968 0 4.712 1.071 4.712 4.33v7.7h-3.707V9.967a2.1 2.1 0 00-1.927-2.279 2.382 2.382 0 00-2.2 2.279v6.609H6.462z"/></g><path data-name="Path 39669" d="M3.981 1.993a1.99 1.99 0 11-1.99-1.99 1.99 1.99 0 011.99 1.99z"/></g></symbol><symbol viewBox="0 0 17 14" id="icon-mail" xmlns="http://www.w3.org/2000/svg"><g clip-path="url(#mclip0_1252_2614)"><path d="M.194 1.718c-.065 0-.065 0 0 0C.517.7 1.422 0 2.586 0h11.829c1.098 0 2.068.7 2.456 1.718L9.308 7.573c-.388.318-1.099.318-1.487 0L.194 1.718z"/><path d="M17 4.455v7c0 1.4-1.164 2.545-2.586 2.545H2.586C1.164 14 0 12.855 0 11.455v-7l6.335 4.9c.581.445 1.357.7 2.133.7.775 0 1.551-.255 2.133-.7L17 4.455z"/></g><defs><clipPath id="mclip0_1252_2614"><path d="M0 0h17v14H0z"/></clipPath></defs></symbol><symbol viewBox="0 0 20 18" id="icon-message" xmlns="http://www.w3.org/2000/svg"><g data-name="Iconly/Bold/Message"><path data-name="Path 39670" d="M14.939 0A5.056 5.056 0 0120 5.05v7.9A5.058 5.058 0 0114.939 18H5.06A5.057 5.057 0 010 12.95v-7.9A5.05 5.05 0 015.06 0h9.879zm1.131 5.2a.76.76 0 00-.561.2L11 9a1.566 1.566 0 01-2 0L4.5 5.4a.765.765 0 00-1.071 1.07l.131.13 4.55 3.55a3.149 3.149 0 003.909 0l4.511-3.61.08-.08a.773.773 0 00-.011-1 .841.841 0 00-.529-.26z"/></g></symbol><symbol viewBox="0 0 26 26" id="icon-modul" xmlns="http://www.w3.org/2000/svg"><g clip-path="url(#oclip0_1252_9013)"><path d="M11.7 24.5H4.2c-1.7 0-3.1-1.4-3.1-3.1V4.2c0-1.7 1.4-3.1 3.1-3.1h12.1c1.7 0 3.1 1.4 3.1 3.1v5.3M5.5 6.6h9.2M5.5 11.7h6.2M5.5 16.8h3.7" stroke="#000" stroke-width="2.129" stroke-miterlimit="10" stroke-linecap="round" stroke-linejoin="round"/><path d="M19.1 13.8c.4 0 .7.3.7.7v.3c0 .2.1.4.3.5l.9.5c.1 0 .2.1.3.1.1 0 .2 0 .3-.1l.2-.1c.1-.1.2-.1.3-.1.3 0 .5.1.6.4l.4.6c.2.3.1.8-.2 1l-.2.1c-.1.1-.3.3-.3.5v1c0 .2.1.4.3.5l.2.1c.3.2.4.6.2 1l-.4.6c-.1.2-.4.4-.6.4-.1 0-.2 0-.3-.1l-.2-.1c-.1 0-.2-.1-.3-.1-.1 0-.2 0-.3.1l-.9.4c-.1.1-.3.3-.3.5v.3c0 .4-.3.7-.7.7h-.7c-.4 0-.7-.3-.7-.7v-.3c0-.2-.1-.4-.3-.5l-.9-.5c-.1 0-.2-.1-.3-.1-.1 0-.2 0-.3.1l-.2.1c-.1.1-.2.1-.3.1-.3 0-.5-.1-.6-.4l-.4-.6c-.2-.3-.1-.8.2-1l.2-.1c.1-.1.3-.3.3-.5v-1c0-.2-.1-.4-.3-.5l-.2-.1c-.3-.2-.4-.6-.2-1l.4-.6c.1-.2.4-.4.6-.4.1 0 .2 0 .3.1l.2.1c.1 0 .2.1.3.1.1 0 .2 0 .3-.1l.9-.5c.1-.1.3-.3.3-.5v-.3c0-.4.3-.7.7-.7l.7.1zm0-2.1h-.7c-1.2 0-2.2.7-2.6 1.7h-.4c-1 0-2 .5-2.5 1.4l-.4.6c-.6 1-.5 2.3.2 3.1-.7.9-.8 2.1-.2 3.1l.4.6c.5.9 1.5 1.4 2.5 1.4h.4c.4 1 1.5 1.7 2.6 1.7h.7c1.2 0 2.2-.7 2.6-1.7h.4c1 0 2-.5 2.5-1.4l.4-.6c.6-1 .5-2.3-.2-3.1.7-.9.8-2.1.2-3.1l-.4-.6c-.5-.9-1.5-1.4-2.5-1.4h-.4c-.4-1-1.4-1.7-2.6-1.7z"/><path d="M18.7 20.7a2.1 2.1 0 100-4.2 2.1 2.1 0 000 4.2z"/></g><defs><clipPath id="oclip0_1252_9013"><path d="M0 0h25.3v25.6H0z"/></clipPath></defs></symbol><symbol viewBox="0 0 26 26" id="icon-online" xmlns="http://www.w3.org/2000/svg"><g clip-path="url(#pclip0_1252_8984)"><path d="M21.5 19.4h-17c-1.9 0-3.4-1.5-3.4-3.4V4.5c0-1.9 1.5-3.4 3.4-3.4h17.1c1.9 0 3.4 1.5 3.4 3.4V16c0 1.9-1.6 3.4-3.5 3.4zM13 24.8v-5.4M7.4 24.8h11.2"/><path d="M11 13.9a4 4 0 100-8 4 4 0 000 8zM19.5 14.7l-5-2.8"/></g><defs><clipPath id="pclip0_1252_8984"><path d="M0 0h26v25.9H0z"/></clipPath></defs></symbol><symbol viewBox="0 0 17 16" id="icon-phone" xmlns="http://www.w3.org/2000/svg"><g clip-path="url(#qclip0_1252_2606)"><path d="M15.979 12.955l-.48-3.283a1.526 1.526 0 00-1.262-1.254c-.48-.12-.841-.239-1.202-.418-.78-.239-1.562-.657-2.102-1.373-.24-.299-.36-.597-.48-.896-.18-.537-.722-.895-1.322-.955H7.81c-.602 0-1.082.358-1.322.955-.12.299-.3.597-.48.896C5.465 7.343 4.685 7.76 3.904 8c-.36.18-.721.299-1.202.418-.66.12-1.141.657-1.261 1.254l-.48 3.283C.78 13.97 1.501 15.821 2.582 16h11.534a1.93 1.93 0 001.922-1.91c0-.06 0-1.015-.06-1.135zm-7.509.299c-1.322 0-2.403-1.075-2.403-2.448 0-1.313 1.081-2.388 2.463-2.388a2.403 2.403 0 012.403 2.388c0 1.373-1.081 2.448-2.463 2.448z"/><path d="M15.258 6.09c-.12 0-.3 0-.42-.06-2.523-.299-2.343-1.194-2.343-2.448 0-.895-2.043-1.075-3.965-1.075-1.922 0-3.965.24-3.965 1.075 0 1.254.12 2.09-2.342 2.448-.18 0-.3.06-.42.06C0 6.09 0 4.597 0 3.403 0 2.149 3.304 0 8.47 0c5.226 0 8.47 2.15 8.47 3.403C17 4.597 17 6.09 15.258 6.09z"/></g><defs><clipPath id="qclip0_1252_2606"><path d="M0 0h17v16H0z"/></clipPath></defs></symbol><symbol id="icon-play" viewBox="0 0 13.5 14.7" xml:space="preserve" xmlns="http://www.w3.org/2000/svg"><style/><path id="rPolygon_44" class="rst0" d="M13.5 7.3L0 14.7V0l13.5 7.3z"/></symbol><symbol viewBox="0 0 18.715 15.224" id="icon-right" xmlns="http://www.w3.org/2000/svg"><g data-name="Group 46850"><path data-name="Path 36938" d="M17.447 8.612H1a1 1 0 01-1-1 1 1 0 011-1h16.447a1 1 0 011 1 1 1 0 01-1 1z"/><path data-name="Path 36939" d="M11.103 15.224a1 1 0 01-.707-.293 1 1 0 010-1.414l5.9-5.9-5.9-5.9a1 1 0 010-1.414 1 1 0 011.414 0L18.422 6.9a1 1 0 010 1.414l-6.612 6.617a1 1 0 01-.707.293z"/></g></symbol><symbol id="icon-right-long" viewBox="0 0 72.8 32.7" xml:space="preserve" xmlns="http://www.w3.org/2000/svg"><style/><path class="tst0" d="M54.5 0l-2.7 3 12.7 11.3H0v4h64.5L51.8 29.7l2.7 3 18.3-16.4z"/></symbol><symbol viewBox="0 0 16 16" id="icon-search" xmlns="http://www.w3.org/2000/svg"><path d="M7.333 12.667A5.333 5.333 0 107.333 2a5.333 5.333 0 000 10.667zM14 14l-2.9-2.9" stroke="#1C2B33" stroke-width="1.7" stroke-linecap="round" stroke-linejoin="round"/></symbol><symbol id="icon-tik" viewBox="0 0 86.5 92.3" xmlns="http://www.w3.org/2000/svg"><defs><style/></defs><path class="vcls-1" d="M36.3 89.9a11.2 11.2 0 01-8.1-3.5L3 59a8 8 0 01.4-11.3 8.2 8.2 0 0111.4.4l20.4 22.2 35-65.1a8 8 0 1114.1 7.6L45.5 84.9l-.3.5a11.4 11.4 0 01-8.3 4.5z"/></symbol><symbol viewBox="0 0 27.942 22.703" id="icon-twitter" xmlns="http://www.w3.org/2000/svg"><path data-name="Path 37748" d="M27.942 2.688a11.943 11.943 0 01-3.3.9 5.7 5.7 0 002.52-3.166 11.448 11.448 0 01-3.632 1.387 5.728 5.728 0 00-9.91 3.921 5.9 5.9 0 00.133 1.306A16.214 16.214 0 011.945 1.044 5.73 5.73 0 003.706 8.7a5.657 5.657 0 01-2.588-.706v.063a5.755 5.755 0 004.589 5.629 5.717 5.717 0 01-1.5.189 5.065 5.065 0 01-1.085-.1 5.783 5.783 0 005.353 3.99 11.51 11.51 0 01-7.1 2.443A10.73 10.73 0 010 20.132 16.127 16.127 0 008.788 22.7c10.541 0 16.3-8.732 16.3-16.3 0-.253-.009-.5-.021-.74a11.428 11.428 0 002.875-2.972z"/></symbol><symbol id="icon-unlem" viewBox="0 0 25 100" xmlns="http://www.w3.org/2000/svg"><defs><style>.xcls-1{fill:#eb5b5d}</style></defs><path class="xcls-1" d="M4.9 33.9q-.2-11.7 0-23.4c0-3.5.9-6.6 4.4-8.2C14.7-.3 20 3.5 20.1 10s0 11.9 0 17.8c0 9.9.1 19.8 0 29.7 0 3.6-.9 6.8-4.5 8.5-5.5 2.4-10.6-1.4-10.7-8s0-16 0-24.1zM12.6 98.5c-5.2.1-10.2-4.7-10.4-10S7.2 78 12.6 78a11 11 0 0110.2 10.2c0 5.3-4.9 10.2-10.2 10.3z"/></symbol><symbol viewBox="0 0 26 26" id="icon-virtual" xmlns="http://www.w3.org/2000/svg"><g clip-path="url(#yclip0_1252_8995)"><path d="M21.5 0h-17C2 0 0 2 0 4.5V16c0 2.5 2 4.5 4.5 4.5H12v3.3H7.4c-.6 0-1.1.5-1.1 1.1 0 .6.5 1.1 1.1 1.1h11.2c.6 0 1.1-.5 1.1-1.1 0-.6-.5-1.1-1.1-1.1h-4.5v-3.3h7.5c2.5 0 4.5-2 4.5-4.5V4.5C26 2 24 0 21.5 0zm2.4 16c0 1.3-1.1 2.3-2.3 2.3H4.5c-1.3 0-2.3-1-2.3-2.3V4.5c0-1.3 1-2.3 2.3-2.3h17.1c1.3 0 2.3 1 2.3 2.3V16z"/><path d="M14.4 14.4h-.1c-.4-.1-.7-.3-.8-.7l-1.7-4.2-1.1 2.3c-.2.4-.5.6-1 .6H6.9c-.6 0-1.1-.5-1.1-1.1 0-.6.5-1.1 1.1-1.1H9l1.9-3.9c.2-.4.6-.6 1-.6s.8.3.9.7l1.9 4.7 1-1.3c.2-.3.5-.4.8-.4h2.7c.6 0 1.1.5 1.1 1.1 0 .6-.5 1.1-1.1 1.1H17L15.2 14c-.2.2-.5.4-.8.4z"/></g><defs><clipPath id="yclip0_1252_8995"><path d="M0 0h26v25.9H0z"/></clipPath></defs></symbol><symbol id="icon-world" viewBox="0 0 22.99 22.99" xmlns="http://www.w3.org/2000/svg"><defs><clipPath id="zclippath"><path class="zcls-1" d="M.2.2h22.59v22.59H.2z"/></clipPath><style>.zcls-1{fill:none}.zcls-2{clip-path:url(#zclippath)}</style></defs><g class="zcls-2" id="zGroup_41402"><g id="zGroup_41385"><path id="zPath_26192" class="zcls-3" d="M11.49 22.79c6.24 0 11.3-5.06 11.3-11.3S17.73.2 11.49.2.2 5.26.2 11.49c0 6.24 5.06 11.3 11.3 11.3m-7.09-4.35s.05-.05.1-.05a11.7 11.7 0 012.56-.99c.46 1.24 1.06 2.43 1.79 3.54.05.05.05.1.1.14a9.738 9.738 0 01-4.54-2.65m11.15-6.24c-.09 1.21-.28 2.41-.57 3.59-1.15-.21-2.32-.32-3.5-.33-1.17 0-2.35.1-3.5.33-.33-1.17-.52-2.38-.57-3.59h8.13zm-8.13-1.37c.04-1.22.23-2.42.57-3.59 1.15.21 2.32.32 3.5.33 1.17.01 2.35-.1 3.5-.33.33 1.17.52 2.38.57 3.59H7.43zm4.58 10.59h-1.04s-.05-.1-.1-.14c-1.06-1.24-1.9-2.67-2.46-4.21 1.01-.19 2.04-.29 3.07-.28 1.03 0 2.06.09 3.07.28a13.62 13.62 0 01-2.46 4.21c0 .05-.05.1-.1.14m2.03-.33s.05-.1.1-.14c.73-1.11 1.33-2.3 1.8-3.54.89.23 1.74.56 2.56.99.05 0 .05.05.1.05a10.342 10.342 0 01-4.54 2.65m5.44-3.69s-.05-.05-.1-.05c-.96-.51-1.98-.93-3.02-1.23.33-1.28.52-2.6.57-3.92h4.44a9.884 9.884 0 01-1.89 5.2m-.1-11.72s.07-.02.1-.05c1.1 1.52 1.76 3.32 1.89 5.2h-4.44c-.04-1.33-.23-2.64-.57-3.92 1.04-.33 2.05-.74 3.02-1.23zm-.8-1.13s-.05.05-.1.05c-.81.43-1.67.76-2.56.99-.46-1.24-1.07-2.43-1.8-3.54-.05-.05-.05-.1-.1-.14 1.73.45 3.29 1.37 4.54 2.65m-7.61-2.99H12s.05.1.1.14c1.06 1.24 1.9 2.67 2.46 4.21-1.01.19-2.04.29-3.07.28-1.03 0-2.06-.09-3.07-.28a13.62 13.62 0 012.46-4.21c0-.05.05-.1.1-.14m-2.02.33s-.05.1-.1.14c-.73 1.11-1.33 2.3-1.8 3.55-.89-.23-1.74-.56-2.56-.99-.05 0-.05-.05-.1-.05A9.819 9.819 0 018.95 1.9M3.56 5.63s.05.05.1.05c.96.51 1.98.93 3.02 1.23-.36 1.28-.55 2.6-.57 3.92H1.66c.12-1.88.78-3.68 1.89-5.2M1.61 12.2h4.45c.07 1.32.26 2.64.57 3.92-1.05.31-2.06.72-3.02 1.23-.05 0-.05.05-.1.05-1.1-1.52-1.76-3.32-1.89-5.2"/></g></g></symbol></svg>