<svg width="26" height="26" viewBox="0 0 26 26" fill="" xmlns="http://www.w3.org/2000/svg">
<g clip-path="url(#clip0_1252_8995)">
<path d="M21.5 0H4.5C2 0 0 2 0 4.5V16C0 18.5 2 20.5 4.5 20.5H12V23.8H7.4C6.8 23.8 6.3 24.3 6.3 24.9C6.3 25.5 6.8 26 7.4 26H18.6C19.2 26 19.7 25.5 19.7 24.9C19.7 24.3 19.2 23.8 18.6 23.8H14.1V20.5H21.6C24.1 20.5 26.1 18.5 26.1 16V4.5C26 2 24 0 21.5 0ZM23.9 16C23.9 17.3 22.8 18.3 21.6 18.3H4.5C3.2 18.3 2.2 17.3 2.2 16V4.5C2.2 3.2 3.2 2.2 4.5 2.2H21.6C22.9 2.2 23.9 3.2 23.9 4.5V16Z" fill=""/>
<path d="M14.3998 14.4H14.2998C13.8998 14.3 13.5998 14.1 13.4998 13.7L11.7998 9.49995L10.6998 11.8C10.4998 12.2 10.1998 12.4 9.6998 12.4H6.8998C6.2998 12.4 5.7998 11.9 5.7998 11.3C5.7998 10.7 6.2998 10.2 6.8998 10.2H8.9998L10.8998 6.29995C11.0998 5.89995 11.4998 5.69995 11.8998 5.69995C12.2998 5.69995 12.6998 5.99995 12.7998 6.39995L14.6998 11.1L15.6998 9.79995C15.8998 9.49995 16.1998 9.39995 16.4998 9.39995H19.1998C19.7998 9.39995 20.2998 9.89995 20.2998 10.5C20.2998 11.1 19.7998 11.6 19.1998 11.6H16.9998L15.1998 14C14.9998 14.2 14.6998 14.4 14.3998 14.4Z" fill=""/>
</g>
<defs>
<clipPath id="clip0_1252_8995">
<rect width="26" height="25.9" fill=""/>
</clipPath>
</defs>
</svg>
