<svg xmlns="http://www.w3.org/2000/svg" width="20" height="18" viewBox="0 0 20 18">
  <g id="Iconly_Bold_Message" data-name="Iconly/Bold/Message" transform="translate(0)">
    <g id="Message" transform="translate(0 0)">
      <path id="Path_39670" data-name="Path 39670" d="M14.939,0A5.056,5.056,0,0,1,20,5.05h0v7.9A5.058,5.058,0,0,1,14.939,18H5.06A5.057,5.057,0,0,1,0,12.95H0V5.05A5.05,5.05,0,0,1,5.06,0h9.879ZM16.07,5.2a.76.76,0,0,0-.561.2h0L11,9A1.566,1.566,0,0,1,9,9H9L4.5,5.4A.765.765,0,0,0,3.429,6.47h0l.131.13,4.55,3.55a3.149,3.149,0,0,0,3.909,0h0L16.53,6.54l.08-.08a.773.773,0,0,0-.011-1A.841.841,0,0,0,16.07,5.2Z"/>
    </g>
  </g>
</svg>
