<svg width="26" height="26" viewBox="0 0 26 26" fill="" xmlns="http://www.w3.org/2000/svg">
<g clip-path="url(#clip0_1252_8984)">
<path d="M21.5001 19.4001H4.5001C2.6001 19.4001 1.1001 17.9001 1.1001 16.0001V4.5001C1.1001 2.6001 2.6001 1.1001 4.5001 1.1001H21.6001C23.5001 1.1001 25.0001 2.6001 25.0001 4.5001V16.0001C25.0001 17.9001 23.4001 19.4001 21.5001 19.4001Z" stroke="" stroke-width="2.129" stroke-miterlimit="10" stroke-linecap="round" stroke-linejoin="round"/>
<path d="M13.0002 24.8001V19.4001" stroke="" stroke-width="2.129" stroke-miterlimit="10" stroke-linecap="round" stroke-linejoin="round"/>
<path d="M7.40015 24.8H18.6001" stroke="" stroke-width="2.129" stroke-miterlimit="10" stroke-linecap="round" stroke-linejoin="round"/>
<path d="M11 13.9001C13.2091 13.9001 15 12.1093 15 9.90015C15 7.69101 13.2091 5.90015 11 5.90015C8.79086 5.90015 7 7.69101 7 9.90015C7 12.1093 8.79086 13.9001 11 13.9001Z" stroke="" stroke-width="2.129" stroke-miterlimit="10" stroke-linecap="round" stroke-linejoin="round"/>
<path d="M19.5 14.7001L14.5 11.9001" stroke="" stroke-width="2.129" stroke-miterlimit="10" stroke-linecap="round" stroke-linejoin="round"/>
</g>
<defs>
<clipPath id="clip0_1252_8984">
<rect width="26" height="25.9" fill=""/>
</clipPath>
</defs>
</svg>
