<svg width="27" height="27" viewBox="0 0 27 27" fill="" xmlns="http://www.w3.org/2000/svg">
<g opacity="0.3" clip-path="url(#clip0_1252_9004)">
<path fill-rule="evenodd" clip-rule="evenodd" d="M21.4002 25.8002H5.2002V25.5002C5.2002 22.3002 7.8002 19.7002 11.0002 19.7002H15.6002C18.8002 19.7002 21.4002 22.3002 21.4002 25.5002V25.8002Z" stroke="black" stroke-width="2.129" stroke-miterlimit="10" stroke-linecap="round" stroke-linejoin="round"/>
<path fill-rule="evenodd" clip-rule="evenodd" d="M13.3 16.0001C9.8 16.0001 7 12.3001 7 8.8001V1.1001H19.7V8.8001C19.7 12.3001 16.8 16.0001 13.3 16.0001Z" stroke="black" stroke-width="2.129" stroke-miterlimit="10" stroke-linecap="round" stroke-linejoin="round"/>
<path fill-rule="evenodd" clip-rule="evenodd" d="M7.0001 7.3001C3.7001 7.3001 1.1001 4.7001 1.1001 1.4001V1.1001H7.0001V7.3001Z" stroke="black" stroke-width="2.129" stroke-miterlimit="10" stroke-linecap="round" stroke-linejoin="round"/>
<path fill-rule="evenodd" clip-rule="evenodd" d="M19.7002 7.3001C23.0002 7.3001 25.6002 4.7001 25.6002 1.4001V1.1001H19.7002V7.3001Z" stroke="black" stroke-width="2.129" stroke-miterlimit="10" stroke-linecap="round" stroke-linejoin="round"/>
<path d="M13.3003 16V19.7" stroke="black" stroke-width="2.129" stroke-miterlimit="10" stroke-linecap="round" stroke-linejoin="round"/>
</g>
<defs>
<clipPath id="clip0_1252_9004">
<rect width="26.6" height="26.8" fill=""/>
</clipPath>
</defs>
</svg>
