<svg xmlns="http://www.w3.org/2000/svg" width="18" height="16.58" viewBox="0 0 18 16.58">
  <g id="Group_51575" data-name="Group 51575" transform="translate(0)">
    <g id="Group_51574" data-name="Group 51574" transform="translate(0.137 4.548)">
      <path id="Path_39667" data-name="Path 39667" d="M76.664,172.189h3.707V160.5H76.664Z" transform="translate(-76.664 -160.157)" fill=""/>
      <path id="Path_39668" data-name="Path 39668" d="M91.785,159.681h3.954l-.247,1.572h.042a3.91,3.91,0,0,1,3.078-1.572c1.968,0,4.712,1.071,4.712,4.33v7.7H99.617V165.1a2.1,2.1,0,0,0-1.927-2.279,2.382,2.382,0,0,0-2.2,2.279v6.609H91.785Z" transform="translate(-85.46 -159.681)" fill=""/>
    </g>
    <path id="Path_39669" data-name="Path 39669" d="M80.318,150.8a1.99,1.99,0,1,1-1.99-1.99A1.99,1.99,0,0,1,80.318,150.8Z" transform="translate(-76.337 -148.807)" fill=""/>
  </g>
</svg>
