<svg width="28" height="25" viewBox="0 0 28 25" fill="" xmlns="http://www.w3.org/2000/svg">
<path fill-rule="evenodd" clip-rule="evenodd" d="M26.11 5.71346C25.5931 5.19654 24.8823 4.90115 24.1531 4.90115H19.5377V3.055C19.5377 2.31654 19.2423 1.615 18.7254 1.09807C18.2085 0.581151 17.4977 0.285767 16.7685 0.285767H10.3162C9.57771 0.285767 8.86694 0.581151 8.35002 1.10731C7.83309 1.63346 7.53771 2.335 7.54694 3.07346V4.90115H3.8454C3.10694 4.90115 2.4054 5.19654 1.88848 5.71346C1.37156 6.23038 1.07617 6.93192 1.07617 7.67038V21.5165C1.07617 22.255 1.37156 22.9565 1.88848 23.4735C2.4054 23.9904 3.11617 24.2858 3.8454 24.2858H24.1531C24.8916 24.2858 25.5931 23.9904 26.11 23.4735C26.6269 22.9565 26.9223 22.2458 26.9223 21.5165V7.67038C26.9223 6.93192 26.6269 6.23038 26.11 5.71346ZM9.66079 2.39961C9.83617 2.22423 10.0669 2.13192 10.3162 2.13192H16.7685C17.0085 2.13192 17.2485 2.22423 17.4239 2.39961C17.5992 2.575 17.6916 2.80577 17.6916 3.055V4.90115H9.40232V3.06423C9.40232 2.815 9.49463 2.58423 9.66079 2.40884V2.39961ZM25.0762 10.1073V21.5165C25.0762 21.7658 24.9746 21.9965 24.8085 22.1719C24.6331 22.3473 24.4023 22.4396 24.1531 22.4396H3.8454C3.59617 22.4396 3.3654 22.3473 3.19002 22.1719C3.01463 21.9965 2.92233 21.7658 2.92233 21.5165V7.67038C2.92233 7.42115 3.01463 7.19038 3.19002 7.015C3.3654 6.83961 3.59617 6.7473 3.8454 6.7473H24.1531C24.3931 6.7473 24.6331 6.83961 24.8085 7.015C24.9839 7.19038 25.0762 7.42115 25.0762 7.67038V10.1073Z" fill="" stroke="#32B1E7" stroke-width="0.423529"/>
</svg>
