<svg xmlns="http://www.w3.org/2000/svg" width="18.715" height="15.224" viewBox="0 0 18.715 15.224">
  <g id="Group_46850" data-name="Group 46850" transform="translate(17.715 14.224) rotate(180)">
    <path id="Path_36938" data-name="Path 36938" d="M16.447,1H0A1,1,0,0,1-1,0,1,1,0,0,1,0-1H16.447a1,1,0,0,1,1,1A1,1,0,0,1,16.447,1Z" transform="translate(0 6.612)" fill=""/>
    <path id="Path_36939" data-name="Path 36939" d="M0,14.224a1,1,0,0,1-.707-.293,1,1,0,0,1,0-1.414l5.9-5.9-5.9-5.9a1,1,0,0,1,0-1.414,1,1,0,0,1,1.414,0L7.319,5.9a1,1,0,0,1,0,1.414L.707,13.931A1,1,0,0,1,0,14.224Z" transform="translate(10.103 0)" fill=""/>
  </g>
</svg>
