<svg id="katman_1" data-name="katman 1" xmlns="http://www.w3.org/2000/svg" viewBox="0 0 100 100"><title>icon-instagram</title><g id="Group_1707" data-name="Group 1707"><path id="Path_1334" data-name="Path 1334" d="M64.57-5.75a36.79,36.79,0,0,0-2.33-12.14,24.43,24.43,0,0,0-5.76-8.85,24.45,24.45,0,0,0-8.86-5.77,36.52,36.52,0,0,0-12.14-2.32c-5.33-.25-7-.31-20.61-.31s-15.29.06-20.62.3a36.79,36.79,0,0,0-12.14,2.33,24.33,24.33,0,0,0-8.85,5.77,24.24,24.24,0,0,0-5.77,8.85A36.52,36.52,0,0,0-34.83-5.75c-.25,5.33-.31,7-.31,20.62s.06,15.28.31,20.61a36.78,36.78,0,0,0,2.32,12.14,24.48,24.48,0,0,0,5.78,8.85,24.37,24.37,0,0,0,8.86,5.77A36.52,36.52,0,0,0-5.73,64.56c5.33.25,7,.3,20.61.3s15.28,0,20.62-.3a36.47,36.47,0,0,0,12.13-2.32A25.56,25.56,0,0,0,62.24,47.62a36.78,36.78,0,0,0,2.32-12.14c.25-5.33.3-7,.3-20.61S64.81-.42,64.57-5.75Zm-9,40.82a27.49,27.49,0,0,1-1.73,9.28,16.55,16.55,0,0,1-9.49,9.49,27.49,27.49,0,0,1-9.28,1.73c-5.27.24-6.85.29-20.2.29s-14.94,0-20.21-.29a27.74,27.74,0,0,1-9.28-1.73,15.47,15.47,0,0,1-5.75-3.74,15.54,15.54,0,0,1-3.75-5.75,27.73,27.73,0,0,1-1.72-9.28c-.24-5.27-.29-6.85-.29-20.2s.05-14.94.29-20.21a27.73,27.73,0,0,1,1.72-9.28,15.59,15.59,0,0,1,3.74-5.76,15.57,15.57,0,0,1,5.76-3.73,27.84,27.84,0,0,1,9.29-1.73c5.27-.23,6.85-.29,20.2-.29h0c13.35,0,14.93.05,20.21.29a27.74,27.74,0,0,1,9.28,1.73,15.47,15.47,0,0,1,5.75,3.74,15.45,15.45,0,0,1,3.73,5.75,27.59,27.59,0,0,1,1.73,9.29c.23,5.27.29,6.85.29,20.2S55.81,29.79,55.57,35.07Z" transform="translate(35.14 35.14)"/><path id="Path_1335" data-name="Path 1335" d="M14.87-8.13a23,23,0,1,0,23,23,23,23,0,0,0-23-23Zm0,37.92A14.93,14.93,0,1,1,29.79,14.87,14.92,14.92,0,0,1,14.87,29.79Z" transform="translate(35.14 35.14)"/><path id="Path_1336" data-name="Path 1336" d="M47.82-11.42a6.67,6.67,0,0,1-6.67,6.66,6.67,6.67,0,0,1-6.66-6.66,6.66,6.66,0,0,1,6.66-6.66,6.67,6.67,0,0,1,6.67,6.66Z" transform="translate(35.14 35.14)"/></g></svg>