<?xml version="1.0" encoding="UTF-8"?><svg id="Layer_1" xmlns="http://www.w3.org/2000/svg" xmlns:xlink="http://www.w3.org/1999/xlink" viewBox="0 0 22.99 22.99"><defs><style>.cls-1{fill:none;}.cls-2{clip-path:url(#clippath);}.cls-3{fill:;}</style><clipPath id="clippath"><rect class="cls-1" x=".2" y=".2" width="22.59" height="22.59"/></clipPath></defs><g id="Group_41402"><g class="cls-2"><g id="Group_41385"><path id="Path_26192" class="cls-3" d="M11.49,22.79c6.24,0,11.3-5.06,11.3-11.3S17.73,.2,11.49,.2,.2,5.26,.2,11.49c0,6.24,5.06,11.3,11.3,11.3h0m-7.09-4.35s.05-.05,.1-.05c.81-.43,1.67-.76,2.56-.99h0c.46,1.24,1.06,2.43,1.79,3.54,.05,.05,.05,.1,.1,.14-1.73-.45-3.3-1.37-4.54-2.65m11.15-6.24c-.09,1.21-.28,2.41-.57,3.59-1.15-.21-2.32-.32-3.5-.33-1.17,0-2.35,.1-3.5,.33-.33-1.17-.52-2.38-.57-3.59H15.56Zm-8.13-1.37c.04-1.22,.23-2.42,.57-3.59,1.15,.21,2.32,.32,3.5,.33,1.17,.01,2.35-.1,3.5-.33,.33,1.17,.52,2.38,.57,3.59H7.43Zm4.58,10.59h-1.04s-.05-.1-.1-.14c-1.06-1.24-1.9-2.67-2.46-4.21,1.01-.19,2.04-.29,3.07-.28h0c1.03,0,2.06,.09,3.07,.28-.56,1.54-1.39,2.96-2.46,4.21,0,.05-.05,.1-.1,.14m2.03-.33s.05-.1,.1-.14c.73-1.11,1.33-2.3,1.8-3.54h0c.89,.23,1.74,.56,2.56,.99,.05,0,.05,.05,.1,.05-1.26,1.26-2.82,2.17-4.54,2.65m5.44-3.69s-.05-.05-.1-.05c-.96-.51-1.98-.93-3.02-1.23,.33-1.28,.52-2.6,.57-3.92h4.44c-.12,1.88-.78,3.68-1.89,5.2m-.1-11.72s.07-.02,.1-.05c1.1,1.52,1.76,3.32,1.89,5.2h-4.44c-.04-1.33-.23-2.64-.57-3.92,1.04-.33,2.05-.74,3.02-1.23h0Zm-.8-1.13s-.05,.05-.1,.05c-.81,.43-1.67,.76-2.56,.99h0c-.46-1.24-1.07-2.43-1.8-3.54-.05-.05-.05-.1-.1-.14,1.73,.45,3.29,1.37,4.54,2.65M10.96,1.57h1.04s.05,.1,.1,.14c1.06,1.24,1.9,2.67,2.46,4.21-1.01,.19-2.04,.29-3.07,.28h0c-1.03,0-2.06-.09-3.07-.28,.56-1.54,1.39-2.96,2.46-4.21,0-.05,.05-.1,.1-.14m-2.02,.33s-.05,.1-.1,.14c-.73,1.11-1.33,2.3-1.8,3.55h0c-.89-.23-1.74-.56-2.56-.99-.05,0-.05-.05-.1-.05,1.25-1.28,2.82-2.2,4.55-2.65M3.56,5.63s.05,.05,.1,.05c.96,.51,1.98,.93,3.02,1.23h0c-.36,1.28-.55,2.6-.57,3.92H1.66c.12-1.88,.78-3.68,1.89-5.2m-1.94,6.57H6.06c.07,1.32,.26,2.64,.57,3.92-1.05,.31-2.06,.72-3.02,1.23-.05,0-.05,.05-.1,.05-1.1-1.52-1.76-3.32-1.89-5.2"/></g></g></g></svg>