<svg width="17" height="16" viewBox="0 0 17 16" fill="" xmlns="http://www.w3.org/2000/svg">
<g clip-path="url(#clip0_1252_2606)">
<path d="M15.9788 12.9552L15.4982 9.67165C15.3781 9.01493 14.8975 8.53732 14.2368 8.41791C13.7562 8.29851 13.3958 8.17911 13.0353 8C12.2544 7.7612 11.4735 7.34329 10.9329 6.62687C10.6926 6.32836 10.5724 6.02985 10.4523 5.73135C10.2721 5.19403 9.73145 4.83582 9.13074 4.77612C8.95053 4.77612 8.71025 4.77612 8.46997 4.77612C8.22968 4.77612 7.9894 4.77612 7.80919 4.77612C7.20848 4.77612 6.72792 5.13433 6.48763 5.73135C6.36749 6.02985 6.18728 6.32836 6.00707 6.62687C5.46643 7.34329 4.68551 7.7612 3.90459 8C3.54417 8.17911 3.18375 8.29851 2.70318 8.41791C2.0424 8.53732 1.56184 9.07463 1.4417 9.67165L0.961131 12.9552C0.780919 13.9702 1.50177 15.8209 2.58304 16C2.70318 16 2.76325 16 2.88339 16H14.1166C15.1979 16 16.0389 15.1045 16.0389 14.0896C16.0389 14.0299 16.0389 13.0746 15.9788 12.9552ZM8.46997 13.2537C7.14841 13.2537 6.06714 12.1791 6.06714 10.806C6.06714 9.49254 7.14841 8.41791 8.53004 8.41791C9.85159 8.41791 10.9329 9.49254 10.9329 10.806C10.9329 12.1791 9.85159 13.2537 8.46997 13.2537Z" fill=""/>
<path d="M15.258 6.08955C15.1378 6.08955 14.9576 6.08955 14.8375 6.02985C12.3145 5.73134 12.4947 4.83582 12.4947 3.58209C12.4947 2.68657 10.4523 2.50746 8.53004 2.50746C6.60777 2.50746 4.56537 2.74627 4.56537 3.58209C4.56537 4.83582 4.68551 5.67164 2.22262 6.02985C2.0424 6.02985 1.92226 6.08955 1.80212 6.08955C0 6.08955 0 4.59701 0 3.40299C0 2.14925 3.30389 0 8.46997 0C13.6961 0 16.9399 2.14925 16.9399 3.40299C17 4.59701 17 6.08955 15.258 6.08955Z" fill=""/>
</g>
<defs>
<clipPath id="clip0_1252_2606">
<rect width="17" height="16" fill=""/>
</clipPath>
</defs>
</svg>
