<svg width="26" height="26" viewBox="0 0 26 26" fill="" xmlns="http://www.w3.org/2000/svg">
<g clip-path="url(#clip0_1252_9013)">
<path d="M11.7001 24.5001H4.2001C2.5001 24.5001 1.1001 23.1001 1.1001 21.4001V4.2001C1.1001 2.5001 2.5001 1.1001 4.2001 1.1001H16.3001C18.0001 1.1001 19.4001 2.5001 19.4001 4.2001V9.5001" stroke="black" stroke-width="2.129" stroke-miterlimit="10" stroke-linecap="round" stroke-linejoin="round"/>
<path d="M5.5 6.6001H14.7" stroke="black" stroke-width="2.129" stroke-miterlimit="10" stroke-linecap="round" stroke-linejoin="round"/>
<path d="M5.5 11.7002H11.7" stroke="black" stroke-width="2.129" stroke-miterlimit="10" stroke-linecap="round" stroke-linejoin="round"/>
<path d="M5.5 16.8H9.2" stroke="black" stroke-width="2.129" stroke-miterlimit="10" stroke-linecap="round" stroke-linejoin="round"/>
<path d="M19.0999 13.8002C19.4999 13.8002 19.7999 14.1002 19.7999 14.5002V14.8002C19.7999 15.0002 19.8999 15.2002 20.0999 15.3002L20.9999 15.8002C21.0999 15.8002 21.1999 15.9002 21.2999 15.9002C21.3999 15.9002 21.4999 15.9002 21.5999 15.8002L21.7999 15.7002C21.8999 15.6002 21.9999 15.6002 22.0999 15.6002C22.3999 15.6002 22.5999 15.7002 22.6999 16.0002L23.0999 16.6002C23.2999 16.9002 23.1999 17.4002 22.8999 17.6002L22.6999 17.7002C22.5999 17.8002 22.3999 18.0002 22.3999 18.2002V19.2002C22.3999 19.4002 22.4999 19.6002 22.6999 19.7002L22.8999 19.8002C23.1999 20.0002 23.2999 20.4002 23.0999 20.8002L22.6999 21.4002C22.5999 21.6002 22.2999 21.8002 22.0999 21.8002C21.9999 21.8002 21.8999 21.8002 21.7999 21.7002L21.5999 21.6002C21.4999 21.6002 21.3999 21.5002 21.2999 21.5002C21.1999 21.5002 21.0999 21.5002 20.9999 21.6002L20.0999 22.0002C19.9999 22.1002 19.7999 22.3002 19.7999 22.5002V22.8002C19.7999 23.2002 19.4999 23.5002 19.0999 23.5002H18.3999C17.9999 23.5002 17.6999 23.2002 17.6999 22.8002V22.5002C17.6999 22.3002 17.5999 22.1002 17.3999 22.0002L16.4999 21.5002C16.3999 21.5002 16.2999 21.4002 16.1999 21.4002C16.0999 21.4002 15.9999 21.4002 15.8999 21.5002L15.6999 21.6002C15.5999 21.7002 15.4999 21.7002 15.3999 21.7002C15.0999 21.7002 14.8999 21.6002 14.7999 21.3002L14.3999 20.7002C14.1999 20.4002 14.2999 19.9002 14.5999 19.7002L14.7999 19.6002C14.8999 19.5002 15.0999 19.3002 15.0999 19.1002V18.1002C15.0999 17.9002 14.9999 17.7002 14.7999 17.6002L14.5999 17.5002C14.2999 17.3002 14.1999 16.9002 14.3999 16.5002L14.7999 15.9002C14.8999 15.7002 15.1999 15.5002 15.3999 15.5002C15.4999 15.5002 15.5999 15.5002 15.6999 15.6002L15.8999 15.7002C15.9999 15.7002 16.0999 15.8002 16.1999 15.8002C16.2999 15.8002 16.3999 15.8002 16.4999 15.7002L17.3999 15.2002C17.4999 15.1002 17.6999 14.9002 17.6999 14.7002V14.4002C17.6999 14.0002 17.9999 13.7002 18.3999 13.7002L19.0999 13.8002ZM19.0999 11.7002H18.3999C17.1999 11.7002 16.1999 12.4002 15.7999 13.4002C15.6999 13.4002 15.5999 13.4002 15.3999 13.4002C14.3999 13.4002 13.3999 13.9002 12.8999 14.8002L12.4999 15.4002C11.8999 16.4002 11.9999 17.7002 12.6999 18.5002C11.9999 19.4002 11.8999 20.6002 12.4999 21.6002L12.8999 22.2002C13.3999 23.1002 14.3999 23.6002 15.3999 23.6002C15.4999 23.6002 15.5999 23.6002 15.7999 23.6002C16.1999 24.6002 17.2999 25.3002 18.3999 25.3002H19.0999C20.2999 25.3002 21.2999 24.6002 21.6999 23.6002C21.7999 23.6002 21.8999 23.6002 22.0999 23.6002C23.0999 23.6002 24.0999 23.1002 24.5999 22.2002L24.9999 21.6002C25.5999 20.6002 25.4999 19.3002 24.7999 18.5002C25.4999 17.6002 25.5999 16.4002 24.9999 15.4002L24.5999 14.8002C24.0999 13.9002 23.0999 13.4002 22.0999 13.4002C21.9999 13.4002 21.8999 13.4002 21.6999 13.4002C21.2999 12.4002 20.2999 11.7002 19.0999 11.7002Z" fill=""/>
<path d="M18.7001 20.7C19.8599 20.7 20.8001 19.7598 20.8001 18.6C20.8001 17.4402 19.8599 16.5 18.7001 16.5C17.5403 16.5 16.6001 17.4402 16.6001 18.6C16.6001 19.7598 17.5403 20.7 18.7001 20.7Z" fill=""/>
</g>
<defs>
<clipPath id="clip0_1252_9013">
<rect width="25.3" height="25.6" fill=""/>
</clipPath>
</defs>
</svg>
