<svg width="17" height="14" viewBox="0 0 17 14" fill="" xmlns="http://www.w3.org/2000/svg">
<g clip-path="url(#clip0_1252_2614)">
<path d="M0.193926 1.71818C0.129287 1.71818 0.129287 1.71818 0.193926 1.71818C0.51712 0.7 1.42206 0 2.58556 0H14.4145C15.5133 0 16.4829 0.7 16.8707 1.71818L9.30799 7.57273C8.92016 7.89091 8.20914 7.89091 7.8213 7.57273L0.193926 1.71818Z" fill=""/>
<path d="M17 4.45459V11.4546C17 12.8546 15.8365 14 14.4144 14H2.58555C1.1635 14 0 12.8546 0 11.4546V4.45459L6.3346 9.35459C6.91635 9.80005 7.69202 10.0546 8.46768 10.0546C9.24335 10.0546 10.019 9.80005 10.6008 9.35459L17 4.45459Z" fill=""/>
</g>
<defs>
<clipPath id="clip0_1252_2614">
<rect width="17" height="14" fill=""/>
</clipPath>
</defs>
</svg>
