<?xml version="1.0" encoding="utf-8"?>
<!-- Generator: Adobe Illustrator 26.3.1, SVG Export Plug-In . SVG Version: 6.00 Build 0)  -->
<svg version="1.1" id="Layer_1" xmlns="http://www.w3.org/2000/svg" xmlns:xlink="http://www.w3.org/1999/xlink" x="0px" y="0px"
	 viewBox="0 0 21 21" style="enable-background:new 0 0 21 21;" xml:space="preserve">
<style type="text/css">
	.st0{clip-path:url(#SVGID_00000095300862715360062370000015634608412040325523_);}
	.st1{fill:#D70027;}
	.st2{fill:#DA183B;}
	.st3{fill:#E57085;}
	.st4{fill:#EA8C9D;}
	.st5{fill:#E57185;}
	.st6{fill:#E25972;}
	.st7{fill:#DF425F;}
	.st8{fill:#E25A72;}
	.st9{fill:#EFEFEF;}
	.st10{fill:#0052B3;}
</style>
<g>
	<defs>
		<circle id="SVGID_1_" cx="10.5" cy="10.5" r="10.2"/>
	</defs>
	<clipPath id="SVGID_00000136396280360583241650000004048335877300525988_">
		<use xlink:href="#SVGID_1_"  style="overflow:visible;"/>
	</clipPath>
	<g style="clip-path:url(#SVGID_00000136396280360583241650000004048335877300525988_);">
		<path class="st1" d="M11.3,20.8c-0.1,0-0.1,0-0.2,0c0,0-0.1,0-0.1,0c0,0,0,0-0.1,0c0,0-0.1,0-0.1,0c-0.3,0-0.5,0-0.8,0
			c0,0-0.1,0-0.1,0c0,0,0,0-0.1,0c0,0-0.1,0-0.1,0c-0.1,0-0.1,0-0.2,0c-0.1,0-0.3,0-0.4,0c-0.1,0-0.1,0-0.1-0.1
			c-0.1-0.1,0-0.3,0-0.4c0-2.6,0-5.3,0-7.9c0-0.5,0-0.5-0.5-0.5c-2.6,0-5.3,0-7.9,0c-0.1,0-0.3,0-0.4,0c-0.1-0.1-0.1-0.2-0.1-0.3
			c0-0.1,0-0.1,0-0.2c0-0.1,0-0.1,0-0.2c0,0,0-0.1,0-0.1c0-0.1,0-0.1,0-0.2c0-0.1,0-0.2,0-0.3c0-0.1,0-0.2,0-0.2c0-0.1,0-0.2,0-0.3
			c0-0.1,0-0.1,0-0.2c0,0,0-0.1,0-0.1c0,0,0-0.1,0-0.1c0-0.1,0-0.1,0-0.2c0.1-0.2,0-0.3,0.1-0.5c0.1-0.1,0.3,0,0.4,0
			c2.6,0,5.3,0,7.9,0c0.5,0,0.5,0,0.5-0.5c0-2.6,0-5.3,0-7.9c0-0.1,0-0.3,0.1-0.4c0-0.1,0.1-0.1,0.2-0.1c0.8-0.1,1.6-0.1,2.3,0
			c0.1,0,0.1,0,0.2,0.1c0.1,0.1,0.1,0.3,0.1,0.4c0,2.6,0,5.2,0,7.8c0,0.5,0,0.5,0.5,0.5c2.6,0,5.2,0,7.9,0c0.1,0,0.3,0,0.4,0.1
			c0.1,0,0.1,0.1,0.1,0.2c0.1,0.8,0.1,1.6,0,2.3c0,0.1,0,0.1-0.1,0.2c-0.1,0.1-0.3,0.1-0.4,0.1c-2.6,0-5.3,0-7.9,0
			c-0.1,0-0.2,0-0.3,0c-0.1,0-0.2,0.1-0.2,0.2c0,0.1,0,0.2,0,0.3c0,2.6,0,5.2,0,7.9c0,0.1,0,0.3,0,0.4c-0.1,0.1-0.2,0.1-0.4,0.1
			C11.4,20.8,11.4,20.7,11.3,20.8z"/>
		<path class="st2" d="M0.2,10.1c0.1,0.1,0.1,0.2,0,0.3C0.2,10.3,0.2,10.2,0.2,10.1z"/>
		<path class="st2" d="M0.2,10.6c0.1,0.1,0.1,0.2,0,0.3C0.2,10.8,0.2,10.7,0.2,10.6z"/>
		<path class="st3" d="M0.2,11.1C0.3,11.1,0.3,11.1,0.2,11.1C0.2,11.1,0.2,11.1,0.2,11.1z"/>
		<path class="st3" d="M0.3,9.9C0.3,9.9,0.3,9.9,0.3,9.9C0.2,9.9,0.2,9.9,0.3,9.9C0.2,9.8,0.2,9.8,0.3,9.9z"/>
		<path class="st4" d="M0.3,9.9C0.2,9.9,0.2,9.9,0.3,9.9C0.2,9.8,0.2,9.8,0.3,9.9C0.3,9.8,0.3,9.8,0.3,9.9z"/>
		<path class="st5" d="M9.8,20.8C9.9,20.7,9.9,20.7,9.8,20.8C10,20.8,10,20.8,9.8,20.8C9.9,20.8,9.9,20.8,9.8,20.8z"/>
		<path class="st6" d="M9.9,20.8C9.9,20.8,9.9,20.8,9.9,20.8C10,20.7,10,20.7,9.9,20.8C10,20.8,10,20.8,9.9,20.8
			C10,20.8,10,20.8,9.9,20.8z"/>
		<path class="st7" d="M10,20.8C10,20.8,10,20.8,10,20.8C10,20.7,10.1,20.8,10,20.8C10.1,20.8,10,20.8,10,20.8z"/>
		<path class="st7" d="M10.9,20.8C10.9,20.8,10.9,20.7,10.9,20.8C11,20.8,11,20.8,10.9,20.8C11,20.8,11,20.8,10.9,20.8
			C10.9,20.8,10.9,20.8,10.9,20.8z"/>
		<path class="st8" d="M11,20.8C11,20.8,11,20.8,11,20.8C11,20.7,11,20.7,11,20.8C11.1,20.8,11.1,20.8,11,20.8
			C11,20.8,11,20.8,11,20.8z"/>
		<path class="st5" d="M11.1,20.8C11.1,20.8,11.1,20.8,11.1,20.8C11.1,20.7,11.1,20.7,11.1,20.8C11.1,20.8,11.1,20.8,11.1,20.8z"/>
		<path class="st9" d="M0.6,13.2c-0.1-0.4-0.2-0.9-0.3-1.4c0.1,0,0.2,0,0.3,0c2.8,0,5.6,0,8.4,0c0.2,0,0.2,0,0.2,0.2
			c0,2.8,0,5.6,0,8.4c0,0.1,0,0.2,0,0.3c-0.5-0.1-0.9-0.1-1.4-0.3c-0.1-0.1-0.1-0.2-0.1-0.3c0-1.5,0-3,0-4.5c0-0.1,0-0.1,0-0.2
			c-0.1,0-0.1,0.1-0.1,0.1c-1,1-2,2-3,3c-0.1,0.1-0.2,0.2-0.3,0.2c-0.1-0.1-0.3-0.2-0.4-0.3c0-0.1,0.1-0.2,0.2-0.3
			c0.8-0.8,1.5-1.6,2.3-2.3c0.4-0.4,0.8-0.8,1.2-1.2c0.1-0.1,0.2-0.2,0.1-0.4c0-0.3,0-0.5,0-0.8c-0.1,0-0.1,0.1-0.2,0.1
			c-1.3,1.3-2.7,2.7-4,4c-0.1,0.1-0.2,0.1-0.3,0.2c-0.3-0.4-0.7-0.7-1-1.1c0-0.1,0.1-0.2,0.2-0.3c1-1,2-2,3-3c0,0,0.1-0.1,0.1-0.1
			c-0.1,0-0.1,0-0.2,0c-1.5,0-3,0-4.5,0C0.8,13.3,0.7,13.3,0.6,13.2z"/>
		<path class="st9" d="M20.4,7.8c0.1,0.4,0.2,0.9,0.3,1.4c-0.1,0-0.2,0-0.3,0c-2.8,0-5.6,0-8.4,0c-0.2,0-0.2,0-0.2-0.2
			c0-2.8,0-5.6,0-8.4c0-0.1,0-0.2,0-0.3c0.5,0.1,0.9,0.1,1.4,0.3c0.1,0.1,0.1,0.2,0.1,0.3c0,1.5,0,3,0,4.5c0,0.1,0,0.1,0,0.2
			c0.1,0,0.1-0.1,0.2-0.1c1-1,2-2,3-3c0.1-0.1,0.2-0.1,0.3-0.2c0.1,0.1,0.3,0.2,0.4,0.3c0,0.1-0.1,0.2-0.2,0.3
			c-0.8,0.8-1.6,1.6-2.4,2.4c-0.4,0.4-0.7,0.7-1.1,1.1c-0.1,0.1-0.2,0.2-0.2,0.4c0,0.3,0,0.5,0,0.8c0.1,0,0.1-0.1,0.2-0.1
			c1.3-1.3,2.6-2.6,3.9-3.9c0.1-0.1,0.2-0.3,0.5-0.3C18,3.5,18.2,3.8,18.5,4c0.1,0.1,0.1,0.2,0.2,0.3c0,0.1-0.1,0.2-0.2,0.3
			c-1,1-2,2-3,3c0,0-0.1,0.1-0.1,0.1c0.1,0,0.1,0,0.2,0c1.5,0,3,0,4.5,0C20.2,7.7,20.3,7.7,20.4,7.8z"/>
		<path class="st9" d="M7.8,0.6c0.4-0.1,0.7-0.2,1.1-0.2c0.1,0,0.2,0,0.3,0c0,0.1,0,0.2,0,0.3c0,2.8,0,5.6,0,8.4
			c0,0.2,0,0.2-0.2,0.2c-2.8,0-5.6,0-8.4,0c-0.1,0-0.2,0-0.3,0c0.1-0.5,0.1-0.9,0.3-1.4c0.1-0.1,0.2-0.1,0.3-0.1c1.5,0,3,0,4.5,0
			c0.1,0,0.1,0,0.2,0c0-0.1,0-0.1-0.1-0.1c-1-1-2-2-3-3C2.4,4.5,2.3,4.4,2.3,4.3C2.4,4.2,2.5,4,2.6,3.9c0.1,0,0.2,0.1,0.3,0.2
			C3.8,5,4.7,5.8,5.5,6.7C5.8,7,6.1,7.3,6.4,7.6c0.1,0.1,0.2,0.1,0.3,0.1c0.3,0,0.5,0,0.8,0c0-0.1-0.1-0.1-0.2-0.2
			c-1.3-1.3-2.7-2.7-4-4C3.4,3.5,3.2,3.4,3.3,3.3C3.5,3,3.7,2.8,4,2.5c0.1-0.1,0.2-0.1,0.3-0.2c0.1,0,0.2,0.1,0.3,0.2c1,1,2,2,3,3
			c0,0,0.1,0.1,0.1,0.1c0-0.1,0-0.1,0-0.2c0-1.5,0-3,0-4.5C7.7,0.8,7.7,0.7,7.8,0.6z"/>
		<path class="st9" d="M18.7,16.7c-0.1,0.1-0.2,0.3-0.3,0.4c-0.1,0-0.2-0.1-0.3-0.2c-0.8-0.8-1.6-1.6-2.4-2.4
			c-0.4-0.4-0.8-0.8-1.1-1.1c-0.1-0.1-0.2-0.2-0.4-0.1c-0.3,0-0.5,0-0.8,0c0,0.1,0.1,0.1,0.2,0.2c1.3,1.3,2.7,2.7,4,4
			c0.1,0.1,0.2,0.1,0.2,0.3c-0.2,0.3-0.5,0.5-0.7,0.7c-0.1,0.1-0.2,0.1-0.3,0.2c-0.1,0-0.2-0.1-0.3-0.2c-1-1-2-2-3-3
			c0,0-0.1-0.1-0.1-0.1c0,0.1,0,0.1,0,0.2c0,1.5,0,3,0,4.5c0,0.1,0,0.2-0.1,0.3c-0.4,0.1-0.9,0.2-1.4,0.3c0-0.1,0-0.2,0-0.3
			c0-2.8,0-5.6,0-8.4c0-0.2,0-0.2,0.2-0.2c2.8,0,5.6,0,8.4,0c0.1,0,0.2,0,0.3,0c-0.1,0.5-0.1,0.9-0.3,1.4c-0.1,0.1-0.2,0.1-0.3,0.1
			c-1.5,0-3,0-4.5,0c-0.1,0-0.1,0-0.2,0c0,0.1,0.1,0.1,0.1,0.1c1,1,2,2,3,3C18.6,16.6,18.6,16.6,18.7,16.7z"/>
		<path class="st10" d="M13.2,20.4c0-1.7,0-3.5,0-5.2c0,0,0-0.1,0-0.1c0,0,0.1,0.1,0.1,0.1c1.1,1.1,2.2,2.2,3.3,3.3
			c0,0,0.1,0.1,0.1,0.2c-1,0.7-2,1.3-3.1,1.6C13.4,20.4,13.3,20.4,13.2,20.4z"/>
		<path class="st10" d="M2.3,4.3c0.1,0,0.1,0,0.1,0.1c1.1,1.1,2.3,2.3,3.4,3.4c0,0,0,0,0,0.1c0,0-0.1,0-0.1,0c-1.7,0-3.4,0-5,0
			c0,0-0.1,0-0.1,0c0.3-1.2,0.9-2.3,1.6-3.4C2.2,4.4,2.3,4.4,2.3,4.3z"/>
		<path class="st10" d="M16.7,2.3c0,0.1,0,0.1-0.1,0.1c-1.1,1.1-2.3,2.3-3.4,3.4c0,0,0,0-0.1,0.1c0-1.8,0-3.6,0-5.3
			c1.2,0.3,2.3,0.9,3.3,1.6C16.6,2.2,16.6,2.3,16.7,2.3z"/>
		<path class="st10" d="M18.7,16.7c-0.1,0-0.1,0-0.1-0.1c-1.1-1.1-2.3-2.3-3.4-3.4c0,0,0,0,0-0.1c0,0,0.1,0,0.1,0c1.7,0,3.4,0,5.1,0
			c0,0,0.1,0,0.1,0c-0.3,1.2-0.9,2.3-1.6,3.3C18.8,16.6,18.7,16.7,18.7,16.7z"/>
		<path class="st10" d="M7.8,0.6c0,1.6,0,3.3,0,4.9c0,0.1,0,0.2,0,0.4C7.7,5.9,7.7,5.8,7.6,5.8C6.6,4.7,5.5,3.6,4.4,2.5
			c0,0-0.1-0.1-0.1-0.2C5.1,1.7,6,1.2,7,0.8C7.3,0.8,7.5,0.7,7.8,0.6z"/>
		<path class="st10" d="M20.4,7.8c-0.2,0-0.4,0-0.6,0c-1.5,0-3,0-4.5,0c-0.1,0-0.1,0-0.3,0c0.1-0.1,0.1-0.1,0.2-0.2
			c1.1-1.1,2.2-2.2,3.2-3.2c0.1-0.1,0.1-0.1,0.2-0.1c0.7,0.9,1.2,1.9,1.6,3C20.3,7.5,20.4,7.7,20.4,7.8z"/>
		<path class="st1" d="M3.3,3.3C3.5,3.5,3.7,3.7,3.9,4c1.2,1.2,2.5,2.5,3.7,3.7c0,0,0.1,0.1,0.1,0.1c-0.4,0-0.8,0-1.2,0
			c-0.1,0-0.1-0.1-0.2-0.1C5.2,6.5,4,5.3,2.8,4.1c0,0-0.1-0.1-0.1-0.1C2.8,3.7,3,3.4,3.3,3.3z"/>
		<path class="st1" d="M17.7,17.8c-0.3-0.3-0.5-0.5-0.8-0.8c-1.2-1.2-2.4-2.4-3.6-3.6c-0.1-0.1-0.1-0.1-0.2-0.1c0,0,0,0,0-0.1
			c0.4,0,0.8,0,1.2,0c0.1,0,0.1,0.1,0.2,0.1c1.2,1.2,2.4,2.4,3.6,3.6c0,0,0.1,0.1,0.1,0.1C18.2,17.3,18,17.6,17.7,17.8z"/>
		<path class="st1" d="M17.7,3.3c-0.1,0-0.1,0.1-0.2,0.1c-1.4,1.4-2.8,2.8-4.2,4.2c0,0-0.1,0.1-0.2,0.1c0-0.4,0-0.8,0-1.2
			c0-0.1,0.1-0.1,0.1-0.2c1.2-1.2,2.4-2.4,3.6-3.6C17,2.8,17,2.7,17.1,2.7C17.3,2.8,17.6,3,17.7,3.3z"/>
		<path class="st10" d="M4.3,18.7c0-0.1,0-0.1,0.1-0.1c1.1-1.1,2.3-2.3,3.4-3.4c0,0,0,0,0.1,0c0,0,0,0.1,0,0.1c0,1.7,0,3.4,0,5.1
			c0,0,0,0.1,0,0.1c-1.2-0.3-2.3-0.9-3.4-1.6C4.4,18.8,4.3,18.7,4.3,18.7z"/>
		<path class="st10" d="M0.6,13.2c1.7,0,3.4,0,5.1,0c0.1,0,0.1,0,0.2,0c0,0.1-0.1,0.1-0.1,0.2c-1.1,1.1-2.2,2.2-3.2,3.2
			c-0.1,0.1-0.1,0.1-0.2,0.1c-0.7-0.9-1.2-1.9-1.6-3C0.7,13.5,0.6,13.4,0.6,13.2z"/>
		<path class="st1" d="M3.3,17.8c0-0.1,0-0.1,0.1-0.1c1.5-1.5,2.9-2.9,4.4-4.4c0,0,0,0,0.1-0.1c0,0.4,0,0.8,0,1.2
			c0,0.1-0.1,0.1-0.1,0.2C6.5,15.8,5.3,17,4,18.2c0,0-0.1,0.1-0.1,0.1C3.7,18.2,3.5,18,3.3,17.8z"/>
	</g>
</g>
</svg>
