<svg width="35" height="35" viewBox="0 0 35 35" fill="none" xmlns="http://www.w3.org/2000/svg">
<g clip-path="url(#clip0_1252_3780)">
<path d="M28.5812 26.0669H6.35045C3.86584 26.0669 1.9043 24.0978 1.9043 21.6035V6.50702C1.9043 4.01281 3.86584 2.0437 6.35045 2.0437H28.712C31.1966 2.0437 33.1581 4.01281 33.1581 6.50702V21.6035C33.1581 24.0978 31.0658 26.0669 28.5812 26.0669Z" stroke="#009EE2" stroke-width="2.129" stroke-miterlimit="10" stroke-linecap="round" stroke-linejoin="round"/>
<path d="M17.4658 33.1557V26.0669" stroke="#009EE2" stroke-width="2.129" stroke-miterlimit="10" stroke-linecap="round" stroke-linejoin="round"/>
<path d="M10.1427 33.1558H24.7889" stroke="#009EE2" stroke-width="2.129" stroke-miterlimit="10" stroke-linecap="round" stroke-linejoin="round"/>
<path d="M16.3287 18.8469C19.2175 18.8469 21.5594 16.496 21.5594 13.5959C21.5594 10.6959 19.2175 8.34497 16.3287 8.34497C13.4398 8.34497 11.0979 10.6959 11.0979 13.5959C11.0979 16.496 13.4398 18.8469 16.3287 18.8469Z" stroke="#009EE2" stroke-width="2.129" stroke-miterlimit="10" stroke-linecap="round" stroke-linejoin="round"/>
<path d="M23.2529 20.6984L20.2571 17.6001" stroke="#009EE2" stroke-width="2.129" stroke-miterlimit="10" stroke-linecap="round" stroke-linejoin="round"/>
</g>
<defs>
<clipPath id="clip0_1252_3780">
<rect width="34" height="34" fill="white" transform="translate(0.46582 0.599609)"/>
</clipPath>
</defs>
</svg>
