<svg width="66" height="66" viewBox="0 0 66 66" fill="none" xmlns="http://www.w3.org/2000/svg">
<path d="M32.8983 0C24.5947 0 17.002 3.10253 11.2069 8.21182L14.2384 11.2527C19.2519 6.91816 25.7746 4.29352 32.8983 4.29352C48.6775 4.29352 61.5163 17.1722 61.5163 33.0003C61.5163 48.8285 48.6775 61.7072 32.8983 61.7072C26.0165 61.7072 19.6948 59.2561 14.7539 55.1792L11.7168 58.2257C17.4449 63.0736 24.8366 65.9988 32.9002 65.9988C51.0409 65.9988 65.7984 51.1955 65.7984 32.9985C65.7984 14.8014 51.0391 0 32.8983 0Z" fill="#8C93A4"/>
<path d="M52.952 26.1066C52.952 18.9233 47.1253 13.0786 39.9643 13.0786H25.4822V13.0823H25.4487V31.3279H4.33047C4.70453 24.8409 7.23544 18.9252 11.2142 14.2919L8.18081 11.2491C3.09107 17.0603 0 24.6748 0 33.0005C0 41.3262 3.27158 49.3812 8.62745 55.2521L11.6571 52.213C7.62438 47.731 4.97809 41.9721 4.40119 35.6214H25.4487V53.867H29.729V39.1327H35.8757L46.8796 53.867H52.2281L41.1814 39.0749C47.7748 38.4588 52.9538 32.8791 52.9538 26.1066H52.952ZM32.6674 34.8411H29.7271V17.3739H39.9624C44.7637 17.3739 48.6699 21.2922 48.6699 26.1084C48.6699 30.9247 44.7637 34.8429 39.9624 34.8429H32.6656L32.6674 34.8411Z" fill="#009EE2"/>
</svg>
