<svg width="21" height="26" viewBox="0 0 21 26" fill="none" xmlns="http://www.w3.org/2000/svg">
<g clip-path="url(#clip0_1252_1424)">
<path d="M19.1 5.19998C19.1 6.19998 18.2 7.19998 16.8 7.89998C15.2 8.69998 12.8 9.29998 10.1 9.29998C7.40001 9.29998 5.00001 8.69998 3.30001 7.89998C1.90001 7.09998 1.10001 6.19998 1.10001 5.19998C1.10001 2.89998 5.10001 1.09998 10.1 1.09998C15.1 1.09998 19.1 2.89998 19.1 5.19998Z" stroke="#009EE2" stroke-width="2.129" stroke-miterlimit="10" stroke-linecap="round" stroke-linejoin="round"/>
<path d="M19.1 5.19995V10.6C19.1 11.5 18.5 12.3 17.4 13C15.8 14 13.1 14.7 10.1 14.7C7.10001 14.7 4.40001 14 2.80001 13C1.70001 12.3 1.10001 11.5 1.10001 10.6V5.19995C1.10001 6.19995 2.00001 7.19995 3.40001 7.89995C5.00001 8.69995 7.40001 9.29995 10.1 9.29995C12.8 9.29995 15.2 8.79995 16.8 7.89995C18.2 7.09995 19.1 6.19995 19.1 5.19995Z" stroke="#009EE2" stroke-width="2.129" stroke-miterlimit="10" stroke-linecap="round" stroke-linejoin="round"/>
<path d="M19.1 10.6V15.4C19.1 16.4 18.3 17.3 17 18C15.4 18.9 12.9 19.5 10.1 19.5C7.30001 19.5 4.90001 18.9 3.20001 18C1.90001 17.3 1.10001 16.4 1.10001 15.4V10.6C1.10001 11.5 1.70001 12.3 2.80001 13C4.40001 14 7.10001 14.7 10.1 14.7C13.1 14.7 15.7 14 17.4 13C18.4 12.3 19.1 11.5 19.1 10.6Z" stroke="#009EE2" stroke-width="2.129" stroke-miterlimit="10" stroke-linecap="round" stroke-linejoin="round"/>
<path d="M19.1 15.4V20.7C19.1 23 15.1 24.8 10.1 24.8C5.10001 24.8 1.10001 23 1.10001 20.7V15.4C1.10001 16.4 1.90001 17.3 3.20001 18C4.80001 18.9 7.30001 19.5 10.1 19.5C12.9 19.5 15.3 18.9 17 18C18.3 17.3 19.1 16.4 19.1 15.4Z" stroke="#009EE2" stroke-width="2.129" stroke-miterlimit="10" stroke-linecap="round" stroke-linejoin="round"/>
</g>
<defs>
<clipPath id="clip0_1252_1424">
<rect width="20.1" height="25.8" fill="white"/>
</clipPath>
</defs>
</svg>
