<svg width="27" height="27" viewBox="0 0 27 27" fill="none" xmlns="http://www.w3.org/2000/svg">
<g clip-path="url(#clip0_1252_1444)">
<path d="M13.3 12.3999C15.1225 12.3999 16.6 10.9225 16.6 9.09993C16.6 7.27739 15.1225 5.79993 13.3 5.79993C11.4775 5.79993 10 7.27739 10 9.09993C10 10.9225 11.4775 12.3999 13.3 12.3999Z" stroke="#009EE2" stroke-width="2.2268" stroke-miterlimit="10" stroke-linecap="round" stroke-linejoin="round"/>
<path d="M20.3 20.5C20.3 17.8 18.1 15.7 15.5 15.7H11.1C8.40002 15.7 6.30002 17.9 6.30002 20.5H20.3Z" stroke="#009EE2" stroke-width="2.2268" stroke-miterlimit="10" stroke-linecap="round" stroke-linejoin="round"/>
<path d="M1.10001 8.89998V6.09998C1.10001 3.29998 3.30001 1.09998 6.10001 1.09998H9.00001" stroke="#009EE2" stroke-width="2.2268" stroke-miterlimit="10" stroke-linecap="round" stroke-linejoin="round"/>
<path d="M8.90001 25.4H6.10001C3.30001 25.4 1.10001 23.2 1.10001 20.4V17.6" stroke="#009EE2" stroke-width="2.2268" stroke-miterlimit="10" stroke-linecap="round" stroke-linejoin="round"/>
<path d="M25.4 17.6V20.5C25.4 23.3 23.2 25.5 20.4 25.5H17.6" stroke="#009EE2" stroke-width="2.2268" stroke-miterlimit="10" stroke-linecap="round" stroke-linejoin="round"/>
<path d="M17.6 1.09998H20.5C23.3 1.09998 25.5 3.29998 25.5 6.09998V8.99998" stroke="#009EE2" stroke-width="2.2268" stroke-miterlimit="10" stroke-linecap="round" stroke-linejoin="round"/>
</g>
<defs>
<clipPath id="clip0_1252_1444">
<rect width="26.6" height="26.6" fill="white"/>
</clipPath>
</defs>
</svg>
