<svg width="67" height="30" viewBox="0 0 67 30" fill="none" xmlns="http://www.w3.org/2000/svg">
<g clip-path="url(#clip0_1803_3853)">
<path d="M4.79439 14.0453C4.79439 11.2733 6.29846 9.83448 8.18849 9.83448C10.0479 9.83448 11.4095 10.9268 11.4095 13.8314C11.4095 16.8174 9.9329 17.8286 8.18849 17.8286C6.26518 17.8286 4.79439 16.6442 4.79439 14.0453ZM15.7675 14.7847C15.7675 9.69813 13.457 6.21765 8.20992 6.21765C3.08125 6.21765 0.391357 9.71923 0.391357 13.9822C0.391357 17.9305 2.86575 21.614 7.34793 21.614C9.67504 21.614 11.0251 20.6497 11.356 20.3672V22.3298C11.356 24.598 10.451 26.1102 8.10217 26.1102C6.97164 26.1102 6.13583 25.8108 5.35999 25.4484C4.67121 25.1269 4.15824 24.7553 3.46929 24.7553C1.72388 24.7553 1.24092 26.8549 1.24968 26.866C2.55443 28.5148 5.55948 29.7245 8.08082 29.7245C13.0369 29.7245 15.7682 26.9081 15.7682 21.3219C15.768 21.322 15.7675 15.6959 15.7675 14.7847Z" fill="#6344BE"/>
<path d="M22.6042 13.1792C22.6042 13.1844 23.6063 13.5431 26.235 13.5431C28.0453 13.5431 29.0428 12.8485 29.0428 11.7616C29.0428 10.8428 28.1422 9.84024 26.2459 9.84024C23.854 9.84024 22.6042 11.6198 22.6042 13.1792ZM32.6206 20.4649C31.8417 21.5388 28.7671 23.0866 25.9658 23.0866C20.9879 23.0866 18.1111 19.6583 18.1111 15.022C18.1111 8.9423 22.1839 6.21765 26.0798 6.21765C30.1755 6.21765 32.9815 8.40682 32.9815 11.7459C32.9815 14.0926 31.6545 16.3604 26.1519 16.3604C23.5899 16.3604 22.4713 16.0437 22.4713 16.0455C22.4713 18.9594 24.8667 19.5004 26.2566 19.5004C27.2526 19.5004 28.0278 19.2707 28.6807 19.0067C29.3061 18.754 29.872 18.4662 30.6363 18.4662C32.0909 18.4661 32.6256 20.4581 32.6206 20.4649Z" fill="#6344BE"/>
<path d="M45.529 20.3564C45.529 22.0152 44.0037 23.1099 41.911 23.1099C37.6684 23.1099 35.4529 20.1411 35.4529 15.6101L35.489 4.52792C35.489 3.11926 35.8743 2.11033 36.645 1.49945C37.4158 0.888567 38.5367 0.583252 40.0059 0.583252C39.982 0.748211 39.9572 0.971214 39.9341 1.25243C39.9093 1.51104 39.8916 1.85705 39.8797 2.2918C39.8669 2.72638 39.8611 3.29531 39.8611 3.9996L39.8974 6.21787H44.7396C44.7396 7.27442 44.4383 8.11989 43.8361 8.75404C43.2342 9.38736 42.3788 9.7046 41.2709 9.7046H39.8973L39.861 14.7056C39.861 15.6914 39.9868 16.6314 40.1677 17.3009C40.3482 17.9698 41.3204 19.5269 43.2169 19.5269C44.3375 19.5269 45.0161 19.3693 45.3905 19.2748C45.4483 19.4648 45.529 19.7683 45.529 20.3564Z" fill="#6344BE"/>
<path d="M54.9283 19.5817C54.5729 19.6766 54.3252 19.7394 53.8403 19.7394C52.9029 19.7394 52.3012 19.0751 52.3012 17.9833V9.98641C52.3012 9.28195 52.3067 8.71327 52.3195 8.27852C52.3309 7.84386 52.3492 7.49785 52.3734 7.2394C52.3973 6.95802 52.4213 6.73519 52.4457 6.56998C50.9518 6.56998 49.8196 6.87546 49.0491 7.48617C48.2776 8.09705 47.8928 9.10607 47.8928 10.5148L47.8561 18.6604C47.8561 21.5743 49.7729 23.1808 52.1917 23.0868C53.7153 23.0276 55.0363 22.3199 55.0363 20.7553C55.0362 20.1017 54.9283 19.5817 54.9283 19.5817ZM52.2207 3.96758C51.7018 4.81056 50.9847 5.23146 50.0714 5.23146C49.6763 5.23146 49.3058 5.14748 48.9597 4.97885C48.5894 4.7616 48.3047 4.47964 48.1071 4.12971C47.9097 3.78144 47.8113 3.4019 47.8113 2.99293C47.8113 2.53591 47.9219 2.1261 48.1448 1.76499C48.3671 1.35601 48.6754 1.03711 49.0712 0.807765C49.4655 0.579425 49.8729 0.465088 50.2934 0.465088C50.664 0.465088 51.0223 0.560911 51.3682 0.753474C51.7633 0.946871 52.0594 1.22325 52.2576 1.58444C52.4552 1.94555 52.5537 2.33067 52.5537 2.73973C52.5537 3.17331 52.4429 3.58262 52.2207 3.96758Z" fill="#6344BE"/>
<path d="M56.88 14.2477C56.88 12.6753 57.115 11.3898 57.5843 10.3917C58.0544 9.39366 58.6622 8.61307 59.4093 8.04972C60.1554 7.48654 60.9933 7.10475 61.9207 6.90527C62.8481 6.70587 63.7692 6.60596 64.6852 6.60596H66.4559C66.638 6.98967 66.7134 7.64066 66.7134 7.98726C66.7134 9.47822 65.4744 10.0032 64.0629 10.1189C61.5529 10.3244 61.3241 12.1034 61.3241 13.4894V19.3541C61.3241 20.0585 61.3298 20.628 61.3428 21.0621C61.3546 21.4969 61.3723 21.8427 61.3969 22.1014C61.4202 22.3829 61.4448 22.7871 61.469 22.9279C59.9995 22.9279 58.894 22.8962 57.943 22.1927C57.0704 21.547 56.8799 20.2347 56.8799 18.8259V14.2477H56.88Z" fill="#6344BE"/>
</g>
<defs>
<clipPath id="clip0_1803_3853">
<rect width="66.7177" height="29.1888" fill="white" transform="translate(0.203613 0.5)"/>
</clipPath>
</defs>
</svg>
