<svg width="66" height="18" viewBox="0 0 66 18" fill="none" xmlns="http://www.w3.org/2000/svg">
<g clip-path="url(#clip0_1252_1072)">
<path d="M35.2411 4.78003C32.3599 4.78003 30.3029 6.82797 30.3029 9.74578C30.3029 12.6636 32.4621 14.7115 35.7996 14.7115C37.2844 14.7115 38.565 14.3074 39.4232 13.6088V11.8622H39.3414C38.4492 12.7115 37.2368 13.1704 35.8337 13.1704C33.6949 13.1704 32.2782 12.0882 32.0398 10.3211H40.0294V9.36907C40.0294 6.6088 38.1427 4.79373 35.2411 4.79373V4.78003ZM32.0602 8.86222C32.3804 7.33482 33.6609 6.32112 35.2819 6.32112C36.9984 6.32112 38.2176 7.32112 38.4492 8.86222H32.0602Z" fill="#353544"/>
<path d="M49.9052 6.50606H49.8711C49.1628 5.42386 47.8686 4.78003 46.2135 4.78003C43.4686 4.78003 41.4797 6.84852 41.4797 9.74578C41.4797 12.643 43.4686 14.7115 46.2135 14.7115C47.8618 14.7115 49.1628 14.0677 49.8711 12.9992H49.9052L49.9733 14.5061H51.4241V4.98551H49.9733L49.9052 6.51291V6.50606ZM46.4791 13.1499C44.5379 13.1499 43.2098 11.7458 43.2098 9.72523C43.2098 7.70469 44.5379 6.32112 46.4791 6.32112C48.4203 6.32112 49.7485 7.72523 49.7485 9.72523C49.7485 11.7252 48.3999 13.1499 46.4791 13.1499Z" fill="#353544"/>
<path d="M13.0837 9.56085C13.0837 7.84852 14.3506 6.32113 15.8967 6.32113H17.3271V4.89647C17.3271 4.89647 16.8912 4.81428 16.8367 4.81428C16.6664 4.80058 16.4825 4.78003 16.3122 4.78003C15.7877 4.78003 15.2701 4.81428 14.7456 4.93071C14.3574 5.01291 13.9896 5.14989 13.6354 5.33482C13.4515 5.43756 13.2472 5.5403 13.0769 5.69099C12.0348 6.48551 11.3604 7.73893 11.3604 9.16359V14.4855H13.0769V9.554L13.0837 9.56085Z" fill="#353544"/>
<path d="M1.85934 14.4903V9.55878C1.85934 7.54508 2.90146 6.31905 4.67237 6.31905C6.27301 6.31905 7.23339 7.367 7.23339 9.16837V14.4903H8.94982V8.96289C8.94982 6.3533 7.46497 4.77796 5.07424 4.77796C3.67794 4.77796 2.5609 5.27111 1.90702 6.16837H1.87296V1.96289H0.122482V14.4834H1.85934V14.4903Z" fill="#353544"/>
<path d="M20.6167 17.4992V13.2869H20.6508C21.3932 14.1841 22.5715 14.7115 24.0904 14.7115C26.8353 14.7115 28.8446 12.643 28.8446 9.74578C28.8446 6.84852 26.8422 4.78688 24.104 4.78003C22.5715 4.78003 21.3796 5.35537 20.6439 6.28688V4.97866H18.9275V15.9581H18.9139V17.4924M23.8316 13.1499C22.1288 13.1499 20.9028 12.0677 20.6099 10.4376V9.03345C20.8823 7.40332 22.1288 6.32113 23.8316 6.32113C25.7524 6.32113 27.101 7.72524 27.101 9.72524C27.101 11.7252 25.7524 13.1499 23.8316 13.1499Z" fill="#353544"/>
<path d="M64.9639 0.5H62.9614L57.1718 8.4315L54.6176 5.04109H52.6356L56.1093 9.78082H58.2208L64.9639 0.5Z" fill="#3FBA85"/>
<path d="M59.1472 11.0273H55.1763L52.5948 14.5136L54.5973 14.5205L57.172 11.0342L59.7875 14.5136H61.7559L60.5572 12.9041L59.1472 11.0273Z" fill="#353544"/>
</g>
<defs>
<clipPath id="clip0_1252_1072">
<rect width="65.1152" height="17" fill="white" transform="translate(0.122772 0.5)"/>
</clipPath>
</defs>
</svg>
