<svg width="103" height="29" viewBox="0 0 103 29" fill="none" xmlns="http://www.w3.org/2000/svg">
<path d="M15.6871 0.5763C22.6203 1.29755 28.0275 7.15679 28.0289 14.2786C28.0318 21.8913 21.863 28.0644 14.2503 28.0672C6.63763 28.0701 0.46455 21.9014 0.461671 14.2887C0.458792 6.67596 6.62755 0.502879 14.2403 0.5C14.7283 0.5 15.2106 0.527353 15.6871 0.5763ZM16.3982 27.1056C23.4797 25.9165 28.2549 19.2122 27.0644 12.1321C26.0753 6.23976 21.2699 1.94538 15.605 1.35225C14.4605 1.23277 13.28 1.26444 12.088 1.46454C10.6758 1.70064 9.35851 2.15988 8.15931 2.79619C14.4015 4.91387 17.7572 8.13141 17.989 11.4281C18.1042 13.4638 17.1569 14.9365 15.9145 16.1371L24.7408 15.521C24.9899 15.5037 25.0691 15.7945 24.7667 15.8809L3.71521 21.9158C5.85736 24.867 9.18575 26.8306 12.8813 27.2164C14.0257 27.3359 15.2062 27.3057 16.3982 27.1041M10.6067 14.5852C11.7612 10.2477 10.444 5.70134 7.2941 3.29286C3.0026 6.00942 0.527893 11.1172 1.4219 16.438C1.71702 18.1972 2.35477 19.8139 3.25165 21.2305C6.60596 20.2962 9.55718 18.5283 10.6052 14.5867" fill="white"/>
<path d="M27.0662 12.1304C28.2568 19.2105 23.4816 25.9162 16.4001 27.1039C15.2081 27.3054 14.0276 27.3357 12.8845 27.2162C9.18903 26.8304 5.86064 24.8667 3.71849 21.9155L24.7686 15.8792C25.0709 15.7928 24.9932 15.502 24.7427 15.5193L15.9164 16.1354C17.1602 14.9348 18.106 13.4635 17.9909 11.4265C17.7591 8.12973 14.4019 4.91074 8.16115 2.79451C9.36035 2.15819 10.6776 1.69896 12.0899 1.46286C13.2804 1.26275 14.4624 1.23108 15.6068 1.35057C21.2717 1.94369 26.0757 6.23807 27.0662 12.1304ZM1.42518 16.4378C1.7203 18.197 2.35805 19.8122 3.25637 21.2303C6.61068 20.2959 9.56046 18.5266 10.6099 14.585C11.7645 10.2474 10.4473 5.70109 7.29594 3.29261C3.00444 6.00917 0.529736 11.1169 1.42518 16.4378Z" fill="#DC0000"/>
<path d="M99.3601 12.6441V8.11217H94.8166V12.6441H92.3218V1.84839H94.8166V6.14997H99.3601V1.84839H101.874V12.6441H99.3601Z" fill="#141417"/>
<path d="M45.6062 1.85059V8.60815C45.6062 9.35531 45.7156 10.0017 45.933 10.5272C46.1489 11.0483 46.4613 11.4816 46.8615 11.8156C47.2661 12.1511 47.7541 12.4001 48.3127 12.5527C48.8784 12.7096 49.5176 12.7888 50.213 12.7888C50.9083 12.7888 51.5403 12.7096 52.096 12.5527C52.6416 12.4001 53.108 12.1525 53.4809 11.8185C53.8538 11.4859 54.1474 11.0512 54.3504 10.53C54.5563 10.006 54.66 9.35963 54.66 8.60815V1.85059H52.3263V8.53761C52.3263 9.21855 52.1579 9.76848 51.8239 10.173C51.4827 10.5847 50.9414 10.7921 50.2144 10.7921C49.4874 10.7921 48.9619 10.5847 48.6164 10.1745C48.2767 9.77136 48.1039 9.22143 48.1039 8.53905V1.85059H45.6091H45.6062Z" fill="#141417"/>
<path d="M38.4098 12.6458V3.86556H35.4773V1.8501H43.8559V2.81752C43.8559 3.39625 43.3851 3.867 42.8064 3.867H40.9047V12.6472H38.4098V12.6458Z" fill="#141417"/>
<path d="M80.9985 1.84814H78.5037V12.6438H80.9985V1.84814Z" fill="#141417"/>
<path d="M70.1914 7.60988L70.2763 7.71641L73.4622 11.8236C73.8681 12.3462 74.48 12.6457 75.1408 12.6457H77.1274L72.5624 6.83825L72.4948 6.75331L72.561 6.66693L76.3141 1.84277H73.7184L70.2763 6.49562L70.1899 6.60791V6.41356V1.84277H67.6951V12.6385H70.1899V7.60844L70.1914 7.60988Z" fill="#141417"/>
<path d="M64.4458 12.6425C63.7072 12.6425 63.0105 12.2495 62.6275 11.619L60.6869 8.41439H59.4561V12.6425H56.9626V1.84973H61.4082C62.5498 1.84973 63.4438 2.14773 64.0657 2.7351C64.6862 3.32246 65 4.12577 65 5.12342C65 5.63017 64.8647 6.14267 64.5984 6.64942C64.3364 7.14609 63.8699 7.5535 63.2149 7.8587L63.0709 7.92636L66.0999 12.644H64.4458V12.6425ZM59.4575 6.7905H60.9115C61.4355 6.7905 61.8343 6.64654 62.0978 6.36437C62.3583 6.08365 62.4893 5.72086 62.4893 5.28322C62.4893 4.84558 62.3598 4.46696 62.1064 4.18623C61.8487 3.90263 61.4471 3.75866 60.9115 3.75866H59.4575V6.7905Z" fill="#141417"/>
<path d="M83.0437 12.1865V10.1164C83.8383 10.482 84.8605 10.8462 85.9186 10.8462C87.1365 10.8462 87.7526 10.4288 87.7526 9.62833C87.7526 8.6897 86.9234 8.58461 85.265 7.872C84.1363 7.36813 83.0595 6.58498 83.0595 4.77682C83.0595 2.6721 84.6647 1.68164 86.8874 1.68164C88.0694 1.68164 89.0742 1.95949 89.6385 2.16823V4.18514C89.0742 3.92457 88.0679 3.61073 87.0631 3.61073C85.969 3.61073 85.4579 4.01094 85.4579 4.70628C85.4579 5.43616 86.0755 5.66362 87.1869 6.07967C88.6164 6.79228 90.2734 7.10612 90.2734 9.54051C90.2734 11.6452 88.5977 12.7926 86.3577 12.7926C84.9814 12.7926 83.8887 12.5493 83.0408 12.1837" fill="#141417"/>
<path d="M86.9421 26.7327V15.937H93.7026V16.916C93.7026 17.4875 93.2376 17.9525 92.6661 17.9525H89.437V20.2746H93.0634V22.077H89.437V24.7187H93.7026V26.7327H86.9421Z" fill="#141417"/>
<path d="M62.28 26.7317V15.936H63.4922C64.199 15.936 64.7749 16.5119 64.7749 17.2187V24.7882H68.7569V26.7317H62.2815H62.28Z" fill="#141417"/>
<path d="M49.3284 15.9438H46.8335V26.7323H49.3284V15.9438Z" fill="#141417"/>
<path d="M59.101 26.7313C58.3625 26.7313 57.6658 26.3383 57.2828 25.7077L55.3422 22.5032H54.1113V26.7328H51.6179V15.9399H56.0635C57.2051 15.9399 58.0991 16.2379 58.721 16.8253C59.3415 17.4127 59.6553 18.216 59.6553 19.2136C59.6553 19.7204 59.52 20.2329 59.2536 20.7396C58.9916 21.2363 58.5252 21.6437 57.8702 21.9489L57.7262 22.0166L60.7552 26.7342H59.101V26.7313ZM54.1128 20.8778H55.5668C56.0908 20.8778 56.4896 20.7339 56.753 20.4517C57.0136 20.1724 57.1446 19.8082 57.1446 19.3706C57.1446 18.9329 57.0165 18.5543 56.7617 18.2736C56.504 17.99 56.1023 17.846 55.5668 17.846H54.1128V20.8778Z" fill="#141417"/>
<path d="M41.3421 15.9363H38.4772L34.406 26.732H36.2041C36.6604 26.732 37.0635 26.4412 37.2061 26.0078L37.6235 24.741H42.0014L42.6421 26.732H45.3442L41.3421 15.9363ZM38.2599 22.7989L39.2388 20.0709C39.4562 19.4561 39.675 18.8098 39.819 18.3318H39.855C39.9816 18.8256 40.199 19.4403 40.4178 20.0709L41.3608 22.7989H38.2584H38.2599Z" fill="#141417"/>
<path d="M95.7038 26.2759V24.2072C96.4985 24.5728 97.5206 24.9371 98.5787 24.9371C99.7966 24.9371 100.413 24.5196 100.413 23.7191C100.413 22.7805 99.5836 22.6754 97.9251 21.9628C96.7965 21.459 95.7196 20.6758 95.7196 18.8676C95.7196 16.7629 97.3248 15.7725 99.5476 15.7725C100.73 15.7725 101.734 16.0503 102.299 16.2591V18.276C101.734 18.0154 100.73 17.7015 99.7232 17.7015C98.6305 17.7015 98.1181 18.1018 98.1181 18.7971C98.1181 19.527 98.7356 19.7544 99.847 20.1705C101.277 20.8831 102.934 21.1969 102.934 23.6313C102.934 25.7361 101.258 26.8834 99.0178 26.8834C97.6415 26.8834 96.5489 26.6401 95.7009 26.2745" fill="#141417"/>
<path d="M75.1365 15.9395H76.6826C77.4168 15.9395 78.0992 16.3181 78.4865 16.9414L81.4981 21.7785C81.8379 22.3155 82.2323 23.0267 82.4656 23.5291H82.5203C82.4843 23.044 82.4656 22.3673 82.4656 21.8822V15.9395H84.6523V26.7337H81.9171L78.2547 20.8946C77.9149 20.3576 77.5565 19.717 77.3045 19.2319H77.2685C77.2858 19.6997 77.3218 20.254 77.3218 20.7737V26.7351H75.1365V15.9409V15.9395Z" fill="#141417"/>
<path d="M72.853 15.9438H70.3582V26.7323H72.853V15.9438Z" fill="#141417"/>
</svg>
