<svg width="22" height="27" viewBox="0 0 22 27" fill="none" xmlns="http://www.w3.org/2000/svg">
<g clip-path="url(#clip0_1252_1437)">
<path d="M4.8 25.5L4 23.1C3.9 22.9 3.7 22.7999 3.5 22.7999L1 23.2L3.9 18.2C5 19.2 6.3 19.8999 7.7 20.2999L4.8 25.5Z" stroke="#009EE2" stroke-width="2.129" stroke-miterlimit="10" stroke-linecap="round" stroke-linejoin="round"/>
<path d="M1.29999 10.5C1.29999 5.29998 5.49999 1.09998 10.7 1.09998C15.9 1.09998 20.1 5.29998 20.1 10.5C20.1 15.7 15.9 19.9 10.7 19.9C5.49999 19.9 1.29999 15.7 1.29999 10.5Z" stroke="#009EE2" stroke-width="2.129" stroke-miterlimit="10" stroke-linecap="round" stroke-linejoin="round"/>
<path d="M18 22.7999C17.8 22.7999 17.6 22.9 17.5 23.1L16.7 25.4L13.7 20.2999C15.1 19.8999 16.4 19.2 17.5 18.2L20.5 23.2L18 22.7999Z" stroke="#009EE2" stroke-width="2.129" stroke-miterlimit="10" stroke-linecap="round" stroke-linejoin="round"/>
<path d="M10.7 9.79998C12 9.79998 13.1 8.69998 13.1 7.39998C13.1 6.09998 12 5.09998 10.7 5.09998C9.39999 5.09998 8.29999 6.19998 8.29999 7.49998C8.39999 8.69998 9.39999 9.79998 10.7 9.79998Z" stroke="#009EE2" stroke-width="2.129" stroke-miterlimit="10" stroke-linecap="round" stroke-linejoin="round"/>
<path d="M10.7 10.7C9.20001 10.7 7.70001 11.4 6.70001 12.6C6.40001 13 6.40001 13.5 6.70001 13.9C8.40001 16.1 11.6 16.5 13.7 14.8C14 14.5 14.3 14.2 14.6 13.9C14.9 13.5 14.9 13 14.6 12.6C13.8 11.4 12.3 10.7 10.7 10.7Z" stroke="#009EE2" stroke-width="2.129" stroke-miterlimit="10" stroke-linecap="round" stroke-linejoin="round"/>
</g>
<defs>
<clipPath id="clip0_1252_1437">
<rect width="21.5" height="26.5" fill="white"/>
</clipPath>
</defs>
</svg>
