<svg width="19" height="18" viewBox="0 0 19 18" fill="none" xmlns="http://www.w3.org/2000/svg">
<g clip-path="url(#clip0_1252_1068)">
<path d="M17.1228 0H1.12277C0.570487 0 0.122772 0.447715 0.122772 1V17C0.122772 17.5523 0.570487 18 1.12277 18H17.1228C17.6751 18 18.1228 17.5523 18.1228 17V1C18.1228 0.447715 17.6751 0 17.1228 0Z" fill="#00479B"/>
<path fill-rule="evenodd" clip-rule="evenodd" d="M3.40778 6.96249H5.81278V14.7025H3.40778V6.96249ZM4.61028 3.11499C5.38028 3.11499 6.00528 3.73999 6.00528 4.50999C6.00528 5.27999 5.38028 5.90499 4.61028 5.90499C3.84028 5.91999 3.20278 5.30749 3.19028 4.53749C3.17528 3.76749 3.78778 3.12999 4.55778 3.11749C4.57528 3.11749 4.59278 3.11749 4.61028 3.11749V3.11499ZM7.32278 6.96249H9.63028V8.01999H9.66278C9.98278 7.41249 10.7678 6.76999 11.9378 6.76999C14.3728 6.76999 14.8228 8.37249 14.8228 10.4575V14.7025H12.4178V10.9375C12.4178 10.04 12.4003 8.88499 11.1678 8.88499C9.93528 8.88499 9.72278 9.86249 9.72278 10.8725V14.7025H7.32028V6.96249H7.32278Z" fill="white"/>
</g>
<defs>
<clipPath id="clip0_1252_1068">
<rect width="18" height="18" fill="white" transform="translate(0.122772)"/>
</clipPath>
</defs>
</svg>
