<svg width="128" height="42" viewBox="0 0 128 42" fill="none" xmlns="http://www.w3.org/2000/svg">
<g clip-path="url(#clip0_1252_1092)">
<path fill-rule="evenodd" clip-rule="evenodd" d="M54.5034 7.72729C48.9719 7.72729 44.4717 12.2414 44.4717 17.7901H47.1955V24.6729C49.0263 26.6282 51.6245 27.853 54.5034 27.853C60.035 27.853 64.5351 23.3389 64.5351 17.7901C64.5351 12.2414 60.035 7.72729 54.5034 7.72729ZM47.1955 17.7901C47.1955 13.7477 50.4735 10.4595 54.5034 10.4595C58.5334 10.4595 61.8114 13.7477 61.8114 17.7901C61.8114 21.8326 58.5334 25.1208 54.5034 25.1208C50.4735 25.1208 47.1955 21.8326 47.1955 17.7901ZM44.4706 17.7902V34.0991H47.1943V24.6742V17.7902H44.4706ZM89.0584 17.7901C89.0584 12.2414 93.5585 7.72729 99.0901 7.72729C104.622 7.72729 109.122 12.2414 109.122 17.7901H106.398C106.398 13.7477 103.12 10.4595 99.0901 10.4595C95.0601 10.4595 91.7822 13.7477 91.7822 17.7901C91.7822 21.8326 95.0601 25.1208 99.0901 25.1208C103.12 25.1208 106.398 21.8326 106.398 17.7901V24.6729C104.567 26.6282 101.969 27.853 99.0901 27.853C93.5585 27.853 89.0584 23.3389 89.0584 17.7901ZM106.398 17.7902V24.6742V27.448H109.122V17.7902H106.398ZM76.914 25.1208C73.3298 25.1208 70.3411 22.5175 69.7248 19.0982H84.1024C84.1793 18.6741 84.2208 18.2381 84.2208 17.7915C84.2208 17.3032 84.1722 16.8269 84.081 16.366H69.7456L69.7458 16.3646C70.409 13.0028 73.3708 10.4595 76.914 10.4595C80.4573 10.4595 83.4191 13.0028 84.0823 16.3646C84.1734 16.8256 84.222 17.3019 84.222 17.7901C84.222 18.2368 84.1794 18.6728 84.1036 19.0968H86.8581C86.9138 18.6692 86.9457 18.2332 86.9457 17.7901C86.9457 12.2414 82.4456 7.72729 76.914 7.72729C71.3825 7.72729 66.8824 12.2414 66.8824 17.7901C66.8824 23.3389 71.3825 27.853 76.914 27.853C81.0139 27.853 84.5453 25.3714 86.1002 21.8291H83.0093C81.6996 23.8105 79.4566 25.1208 76.914 25.1208ZM126.338 8.07431L118.991 17.6858L127.05 27.4481H123.514L117.291 19.9107L114.197 23.9556V27.4481H111.474V8.01492H114.197V11.8804V16.164V19.4653L115.508 17.7511L117.209 15.5273L122.951 8.01492H126.261L126.338 8.07431Z" fill="#8C93A4"/>
<path d="M20.9351 0C15.651 0 10.8193 1.97432 7.13159 5.22565L9.06072 7.16077C12.2511 4.40242 16.4018 2.73221 20.9351 2.73221C30.9763 2.73221 39.1463 10.9277 39.1463 21C39.1463 31.0724 30.9763 39.2678 20.9351 39.2678C16.5558 39.2678 12.5329 37.7081 9.38875 35.1136L7.45607 37.0523C11.1012 40.1374 15.805 41.9988 20.9363 41.9988C32.4802 41.9988 41.8713 32.5786 41.8713 20.9988C41.8713 9.419 32.4791 0 20.9351 0Z" fill="#8C93A4"/>
<path d="M33.6964 16.6131C33.6964 12.042 29.9885 8.32261 25.4316 8.32261H16.2158V8.32498H16.1945V19.9357H2.75573C2.99376 15.8077 4.60432 12.0432 7.13623 9.09475L5.20592 7.15845C1.96702 10.8564 0 15.7019 0 21.0001C0 26.2982 2.08189 31.424 5.49014 35.16L7.41808 33.2261C4.85183 30.3739 3.16784 26.7092 2.80073 22.6679H16.1945V34.2786H18.9182V24.9024H22.8298L29.8322 34.2786H33.2357L26.206 24.8655C30.4018 24.4735 33.6975 20.9228 33.6975 16.6131H33.6964ZM20.7881 22.1713H18.917V11.056H25.4304C28.4857 11.056 30.9714 13.5494 30.9714 16.6143C30.9714 19.6791 28.4857 22.1725 25.4304 22.1725H20.787L20.7881 22.1713Z" fill="#009EE2"/>
</g>
<defs>
<clipPath id="clip0_1252_1092">
<rect width="127.05" height="42" fill="white"/>
</clipPath>
</defs>
</svg>
