<svg width="19" height="18" viewBox="0 0 19 18" fill="none" xmlns="http://www.w3.org/2000/svg">
<g clip-path="url(#clip0_1252_1063)">
<path d="M18.1228 8.96572C18.0329 4.48498 14.7734 0.753167 10.3761 0.0941085C6.11564 -0.543552 1.88085 2.16116 0.520585 6.38512C-0.814016 10.5278 1.32904 15.2739 5.39273 17.1911C6.53057 17.7261 7.75395 17.9957 9.02866 17.9957C12.07 17.9957 14.9189 16.4764 16.6556 13.9301C17.5795 12.5734 18.0886 10.8787 18.1228 9.04275C18.1228 9.02991 18.1228 9.0128 18.1228 8.99996C18.1228 8.98712 18.1228 8.97 18.1228 8.95716V8.96572ZM16.9593 9.03419C16.9293 10.6433 16.4845 12.1155 15.6846 13.2924C14.1746 15.5092 11.6893 16.8359 9.0415 16.8359C7.92933 16.8359 6.86849 16.6005 5.88038 16.1341C2.7492 14.6576 0.931231 11.2596 1.35043 8.00281C1.5857 8.10124 1.85519 8.19539 2.14178 8.28526C2.7107 8.47357 3.301 8.66615 3.49777 8.93576C3.75015 9.27813 3.70737 9.63334 3.6646 10.0099C3.60471 10.5107 3.54055 11.0798 4.20785 11.6704C4.58 12 4.70832 12.8131 4.81526 13.4636C4.85376 13.7075 4.89226 13.9429 4.93503 14.1269C5.05481 14.5977 5.60661 15.0813 6.09425 15.5092L6.14558 15.552C6.19264 15.5905 6.24825 15.6119 6.30385 15.6119C6.34235 15.6119 6.38085 15.6034 6.41935 15.582C6.50918 15.5349 6.55623 15.4365 6.5434 15.338C6.42363 14.542 6.68456 13.8487 7.37752 13.0913C7.48874 12.9671 7.6684 12.8174 7.86944 12.6419C8.48541 12.1112 9.33237 11.388 9.23399 10.7246C9.18693 10.3994 8.91745 10.1255 8.43408 9.90723C8.16032 9.78312 7.82239 9.56486 7.46308 9.32949C6.7145 8.84161 5.86327 8.28954 5.23874 8.37941C4.29768 8.52064 4.01108 8.22963 3.70737 7.9215C3.45927 7.67328 3.20262 7.41223 2.5952 7.42078L2.57809 7.40367C2.61659 7.05702 2.70214 6.84304 2.83903 6.77028C3.01868 6.67613 3.28817 6.82164 3.54482 6.96287C3.78865 7.09553 4.01536 7.21964 4.19929 7.16401C4.65699 7.02706 4.96498 6.6205 5.29007 6.19254C5.63228 5.74318 5.98731 5.2767 6.5434 5.09268C7.13798 4.89582 7.29625 4.4807 7.24492 4.15973C7.18931 3.78312 6.82144 3.368 6.14986 3.35516C5.10186 3.33377 5.06764 3.2225 4.89654 2.68327C4.87943 2.62335 4.85376 2.55488 4.83237 2.48213C6.09853 1.63476 7.58712 1.15545 9.12705 1.15545C9.48636 1.15545 9.84996 1.18113 10.2136 1.23676C11.3172 1.40367 12.3352 1.78883 13.2335 2.34946C12.656 2.46501 12.3395 2.63619 12.2796 2.87157C12.1983 3.18398 12.5919 3.50495 12.8785 3.73605C12.9854 3.82164 13.118 3.92863 13.1266 3.95859C13.1095 4.08698 12.7288 4.21536 12.3609 4.34375C11.5781 4.61337 10.5087 4.98141 10.7996 5.87585C10.8124 5.91864 10.8466 5.9486 10.8937 5.96144C10.9365 5.97 10.9792 5.96144 11.0135 5.9272C11.3257 5.59339 13.4474 5.69611 13.7468 5.77742C14.0762 5.86729 14.2644 5.74318 14.4312 5.63619C14.551 5.55916 14.6537 5.4864 14.8034 5.50352C14.9103 5.51636 14.9531 5.66615 14.9659 5.75602C15.0173 6.05559 14.9146 6.4322 14.8077 6.48355C14.2174 6.76173 13.7254 6.50923 13.2463 6.26529C12.9041 6.08983 12.579 5.9272 12.224 5.94432C11.638 5.97856 10.7269 6.4322 10.2734 7.10837C10.0211 7.48498 9.9569 7.87442 10.0809 8.23391C10.1194 8.34946 10.1109 8.47785 10.1066 8.61907C10.0938 8.86729 10.0767 9.14974 10.3804 9.32093C10.6884 9.49211 11.0648 9.48783 11.4327 9.48355C11.946 9.47499 12.4293 9.47071 12.7202 9.90723C12.7929 10.0142 12.8357 10.3994 12.8828 10.8445C12.994 11.8416 13.1437 13.2025 13.7896 13.5577C13.8965 13.6176 14.0078 13.6433 14.1318 13.6433C14.2772 13.6433 14.4355 13.6048 14.6023 13.5235C15.4407 13.1169 15.4621 12.2311 15.475 11.4522C15.4878 10.9343 15.4963 10.4422 15.7658 10.2239C16.4203 9.69753 16.6641 9.41508 16.6598 9.18826C16.6598 9.00852 16.5016 8.89297 16.3048 8.74746C16.0182 8.53776 15.6332 8.25103 15.4493 7.60053C15.7231 7.88726 16.2791 8.39653 16.4246 8.49068C16.6299 8.61907 16.8053 8.68327 16.9507 8.68755C16.955 8.7817 16.9593 8.88013 16.9636 8.97856V9.00424V9.02991L16.9593 9.03419Z" fill="#0085B3"/>
<path d="M10.6627 2.33668C10.8466 2.11842 10.8081 1.96436 10.744 1.87449C10.4574 1.46792 9.05861 1.63055 8.15177 1.75894C7.95072 1.78461 7.68551 1.78889 7.57002 1.69474C7.43741 1.58775 7.03532 1.66906 6.79578 1.72042C6.47496 1.78889 6.11564 1.83169 5.85471 2.22113C5.7991 2.30673 5.7991 2.41372 5.85471 2.49075C5.91888 2.57634 6.0087 2.62342 6.1242 2.63197C6.13703 2.63197 6.14986 2.63197 6.1627 2.63197C6.42791 2.63197 6.81289 2.40088 7.0781 2.22541C7.25775 2.10986 7.4203 2.12698 7.41602 2.37092C7.41602 2.45651 7.52724 2.7732 7.54863 2.82456C7.71973 3.19688 7.955 3.58633 8.25443 3.62484C8.26726 3.62484 8.27581 3.62484 8.28865 3.62484C8.77629 3.62484 10.4146 2.63197 10.6584 2.34096L10.6627 2.33668Z" fill="#0085B3"/>
</g>
<defs>
<clipPath id="clip0_1252_1063">
<rect width="18" height="18" fill="white" transform="translate(0.122772)"/>
</clipPath>
</defs>
</svg>
