<?xml version="1.0" encoding="UTF-8"?><svg id="Layer_1" xmlns="http://www.w3.org/2000/svg" viewBox="0 0 21 21"><defs><style>.cls-1{fill:#fff;}.cls-2{fill:#e53030;}</style></defs><circle class="cls-2" cx="10.5" cy="10.49" r="10.28"/><path class="cls-1" d="M12.77,8.5c-.09-.13-.18-.26-.28-.38-.64-.74-1.45-1.07-2.42-1.01-1.56,.09-2.81,1.12-3.14,2.64-.45,2.14,.85,3.8,2.57,4.17,.82,.18,1.63,.18,2.34-.35,.19-.14,.35-.3,.55-.47-.03,.06-.04,.1-.06,.14-.65,.97-1.55,1.51-2.72,1.52-1.83,.03-3.23-.75-4.01-2.41-1.13-2.4,.08-5.36,2.86-6.01,1.76-.41,3.49,.38,4.26,1.97,.03,.06,.05,.13,.08,.19h-.02Z"/><path class="cls-1" d="M11.91,10.83c.42-.12,.79-.23,1.16-.33q.3-.09,.31-.4c.02-.42,.03-.84,.05-1.31,.06,.08,.1,.11,.13,.15,.22,.35,.45,.7,.66,1.05,.07,.12,.14,.15,.27,.11,.36-.11,.72-.21,1.08-.31,.06-.02,.13-.03,.25-.06-.19,.25-.35,.45-.51,.66-.12,.16-.24,.32-.37,.47-.07,.09-.07,.15-.01,.25,.25,.39,.49,.78,.72,1.2-.07-.03-.14-.05-.21-.08-.34-.13-.69-.26-1.02-.41-.13-.06-.2-.03-.28,.08-.23,.31-.47,.6-.7,.9-.04,.05-.08,.1-.15,.18,0-.26,0-.48,0-.7,0-.25,.01-.49,.03-.74,0-.11-.03-.17-.14-.21-.34-.13-.67-.26-1.01-.4-.07-.03-.14-.06-.26-.12Z"/></svg>